<svg xmlns="http://www.w3.org/2000/svg" fill="none" viewBox="0 0 512 512" height="512" width="512"><path fill="#e04f5f" d="M256 512c141.38647272727272 0 256 -114.61352727272727 256 -256S397.38647272727275 0 256 0 0 114.61352727272727 0 256s114.61352727272727 256 256 256Z" stroke-width="1"></path><path fill="#f0f1f1" d="M216.87854545454545 114.14341818181818a4.822109090909091 4.822109090909091 0 0 1 -0.09309090909090909 -4.7104 4.435781818181818 4.435781818181818 0 0 1 3.895854545454545 -2.3784727272727273h70.63738181818182c1.6151272727272725 0 3.1045818181818183 0.912290909090909 3.8911999999999995 2.3831272727272728 0.7866181818181819 1.4708363636363635 0.7540363636363636 3.2721454545454542 -0.08843636363636363 4.7104 -5.245672727272727 8.894836363636363 -12.35781818181818 27.46181818181818 -12.35781818181818 62.72930909090909C282.76363636363635 242.03636363636363 363.05454545454546 242.03636363636363 363.05454545454546 316.5090909090909c0 51.199999999999996 -40.14545454545454 88.43636363636364 -107.05454545454545 88.43636363636364s-107.05454545454545 -41.89090909090909 -107.05454545454545 -88.43636363636364c0 -74.47272727272727 80.29090909090908 -74.47272727272727 80.29090909090908 -139.63636363636363 0 -35.26749090909091 -7.1121454545454545 -53.834472727272725 -12.35781818181818 -62.72930909090909Z" stroke-width="1"></path><path fill="#ffffff" d="M220.68130909090908 107.05454545454545a4.435781818181818 4.435781818181818 0 0 0 -3.895854545454545 2.3784727272727273c-0.7866181818181819 1.4708363636363635 -0.7540363636363636 3.2721454545454542 0.09309090909090909 4.7104 5.245672727272727 8.899490909090908 12.35781818181818 27.46181818181818 12.35781818181818 62.72930909090909C229.23636363636362 242.03636363636363 148.94545454545454 242.03636363636363 148.94545454545454 316.5090909090909c0 46.54545454545455 40.14545454545454 88.43636363636364 107.05454545454545 88.43636363636364V107.05454545454545h-35.31869090909091Z" stroke-width="1"></path><path fill="#3e3e3f" d="M144.29090909090908 144.29090909090908h-37.236363636363635v74.47272727272727h37.236363636363635V144.29090909090908Z" stroke-width="1"></path><path fill="#ffffff" d="M162.9090909090909 144.29090909090908h-18.618181818181817v74.47272727272727h18.618181818181817V144.29090909090908Z" stroke-width="1"></path><path fill="#f3b607" d="M153.6 209.45454545454544a4.654545454545454 4.654545454545454 0 1 0 0 -9.309090909090909 4.654545454545454 4.654545454545454 0 0 0 0 9.309090909090909Z" stroke-width="1"></path><path fill="#f7b4b4" d="M260.6545454545454 134.98181818181817c0 5.12 -4.189090909090909 9.309090909090909 -9.309090909090909 9.309090909090909h-24.729599999999998c1.536 8.797090909090908 2.6205090909090907 19.54909090909091 2.6205090909090907 32.58181818181818 0 17.74312727272727 -6.5442909090909085 31.27389090909091 -14.056727272727272 40.680727272727275L162.9090909090909 209.45454545454544V158.25454545454545l31.32509090909091 -23.179636363636366A37.1712 37.1712 0 0 1 218.94981818181816 125.67272727272727H251.34545454545454c5.12 0 9.309090909090909 4.189090909090909 9.309090909090909 9.309090909090909Z" stroke-width="1"></path><path fill="#f7b4b4" d="M260.6545454545454 139.63636363636363h-13.963636363636363a9.309090909090909 9.309090909090909 0 0 0 0 18.618181818181817 9.309090909090909 9.309090909090909 0 0 0 0 18.618181818181817 9.309090909090909 9.309090909090909 0 0 0 0 18.618181818181817 9.309090909090909 9.309090909090909 0 0 0 0 18.618181818181817h37.236363636363635a9.309090909090909 9.309090909090909 0 0 0 9.309090909090909 -9.309090909090909V148.94545454545454a9.309090909090909 9.309090909090909 0 0 0 -9.309090909090909 -9.309090909090909h-23.272727272727273Z" stroke-width="1"></path><path fill="#3e3e3f" d="M256.1768727272727 263.1354181818182c2.9975272727272726 0 5.3713454545454535 2.373818181818182 5.3713454545454535 5.3713454545454535v2.746181818181818a45.40043636363636 45.40043636363636 0 0 1 19.3536 6.87010909090909c1.9968 1.1217454545454544 3.746909090909091 2.9975272727272726 3.746909090909091 5.990399999999999 0 3.8725818181818177 -3.1185454545454547 6.87010909090909 -6.991127272727272 6.87010909090909a7.214545454545455 7.214545454545455 0 0 1 -3.746909090909091 -1.1217454545454544c-4.370618181818181 -2.6205090909090907 -8.615563636363635 -4.4962909090909084 -12.86050909090909 -5.497018181818182v23.970909090909092c18.981236363636363 4.747636363636364 27.09410909090909 12.362472727272728 27.09410909090909 25.72101818181818 0 13.735563636363636 -10.738036363636363 22.849163636363635 -26.59141818181818 24.34327272727273v7.493818181818182c0 2.9975272727272726 -2.373818181818182 5.3666909090909085 -5.3713454545454535 5.3666909090909085 -2.9975272727272726 0 -5.492363636363636 -2.373818181818182 -5.492363636363636 -5.3666909090909085v-7.745163636363635c-9.364945454545454 -0.9960727272727272 -17.98050909090909 -4.365963636363636 -25.595345454545452 -9.737309090909092 -2.122472727272727 -1.373090909090909 -3.3698909090909086 -3.374545454545454 -3.3698909090909086 -5.995054545454545 0 -3.867927272727272 2.9975272727272726 -6.865454545454545 6.865454545454545 -6.865454545454545 1.4987636363636363 0 2.9975272727272726 0.4980363636363636 4.119272727272727 1.373090909090909 5.869381818181817 4.244945454545454 11.613090909090909 7.1168 18.478545454545454 8.364218181818181v-24.59461818181818c-18.231854545454542 -4.747636363636364 -26.721745454545452 -11.613090909090909 -26.721745454545452 -25.72101818181818 0 -13.358545454545455 10.612363636363636 -22.597818181818184 26.219054545454544 -23.849890909090906v-2.6205090909090907c0 -2.9975272727272726 2.4948363636363635 -5.3666909090909085 5.492363636363636 -5.3666909090909085Zm-4.994327272727272 42.57512727272727v-22.099781818181818c-7.9918545454545455 0.7493818181818181 -11.985454545454546 4.994327272727272 -11.985454545454546 10.486690909090909 0 5.245672727272727 2.373818181818182 8.494545454545454 11.985454545454546 11.613090909090909Zm9.862981818181819 17.3568v22.723490909090906c7.9918545454545455 -0.8750545454545454 12.362472727272728 -4.868654545454546 12.362472727272728 -10.86370909090909 0 -5.492363636363636 -2.746181818181818 -8.862254545454544 -12.362472727272728 -11.859781818181817Z" stroke-width="1"></path><path fill="#fbc8c8" d="M253.41207272727272 125.92407272727272A9.197381818181817 9.197381818181817 0 0 0 251.34545454545454 125.67272727272727h-32.39563636363636c-9.12290909090909 0 -17.919999999999998 3.351272727272727 -24.71563636363636 9.402181818181818L162.9090909090909 158.25454545454545v51.199999999999996l6.036945454545454 0.9355636363636364 58.838109090909086 -58.39127272727272c-0.34909090909090906 -2.9370181818181815 -0.7121454545454545 -5.12 -1.1636363636363636 -7.707927272727272h8.424727272727273l18.366836363636363 -18.366836363636363Z" stroke-width="1"></path></svg>