<svg xmlns="http://www.w3.org/2000/svg" fill="none" viewBox="0 0 512 512" height="512" width="512"><path fill="#e04f5f" d="M256 512c141.38647272727272 0 256 -114.61352727272727 256 -256S397.38647272727275 0 256 0 0 114.61352727272727 0 256s114.61352727272727 256 256 256Z" stroke-width="1"></path><path fill="#facb1b" d="M125.67272727272727 339.78181818181815c0.6190545454545454 -0.13498181818181818 -11.547927272727271 -48.23505454545454 -16.677236363636364 -67.01614545454545C104.53643636363635 256.4514909090909 111.7090909090909 246.6909090909091 144.29090909090908 246.6909090909091h32.256c3.1138909090909093 0 6.018327272727272 -1.554618181818182 7.745163636363635 -4.1472l31.71141818181818 -47.5648c1.722181818181818 -2.587927272727273 4.631272727272727 -4.142545454545455 7.74050909090909 -4.142545454545455h66.47156363636364A81.68727272727273 81.68727272727273 0 0 1 367.7090909090909 246.6909090909091h27.927272727272726a9.309090909090909 9.309090909090909 0 0 1 9.309090909090909 9.309090909090909l-9.309090909090909 74.47272727272727a9.309090909090909 9.309090909090909 0 0 1 -9.309090909090909 9.309090909090909H125.67272727272727Z" stroke-width="1"></path><path fill="#fbe158" d="M223.744 190.83636363636361c-3.1138909090909093 0 -6.018327272727272 1.554618181818182 -7.745163636363635 4.1472L184.2920727272727 242.54836363636363a9.309090909090909 9.309090909090909 0 0 1 -7.745163636363635 4.142545454545455H144.29090909090908c-32.58181818181818 0 -39.75447272727273 9.760581818181818 -35.29541818181818 26.074763636363638 4.091345454545454 14.982981818181816 12.65570909090909 48.59810909090909 15.643927272727273 61.66341818181817L268.22749090909093 190.83636363636361H223.744Z" stroke-width="1"></path><path fill="#cfd3d4" d="M139.63636363636363 335.1272727272727c0 -5.003636363636363 1.1636363636363636 -9.727999999999998 3.1790545454545454 -13.963636363636363H116.36363636363636a9.309090909090909 9.309090909090909 0 0 0 0 18.618181818181817h23.645090909090907a32.03723636363636 32.03723636363636 0 0 1 -0.37236363636363634 -4.654545454545454Z" stroke-width="1"></path><path fill="#3e3e3f" d="M172.21818181818182 367.7090909090909a32.58181818181818 32.58181818181818 0 1 0 0 -65.16363636363636 32.58181818181818 32.58181818181818 0 0 0 0 65.16363636363636Z" stroke-width="1"></path><path fill="#cfd3d4" d="M172.21818181818182 349.09090909090907a13.963636363636363 13.963636363636363 0 1 0 0 -27.927272727272726 13.963636363636363 13.963636363636363 0 0 0 0 27.927272727272726Z" stroke-width="1"></path><path fill="#3e3e3f" d="M339.78181818181815 367.7090909090909a32.58181818181818 32.58181818181818 0 1 0 0 -65.16363636363636 32.58181818181818 32.58181818181818 0 0 0 0 65.16363636363636Z" stroke-width="1"></path><path fill="#cfd3d4" d="M339.78181818181815 349.09090909090907a13.963636363636363 13.963636363636363 0 1 0 0 -27.927272727272726 13.963636363636363 13.963636363636363 0 0 0 0 27.927272727272726Z" stroke-width="1"></path><path fill="#40c9e7" d="M321.16363636363633 213.504v33.1776l0.00930909090909091 0.00930909090909091H349.09090909090907l-0.09309090909090909 -0.37236363636363634A48.63069090909091 48.63069090909091 0 0 0 321.16363636363633 213.504Z" stroke-width="1"></path><path fill="#40c9e7" d="M302.5035636363636 209.45454545454544h-37.18516363636363l-0.00930909090909091 0.00930909090909091v37.21774545454546l0.00930909090909091 0.00930909090909091h37.21774545454546l0.00930909090909091 -0.00930909090909091v-37.18516363636363L302.5035636363636 209.45454545454544Z" stroke-width="1"></path><path fill="#40c9e7" d="m223.41352727272726 209.45919999999998 -23.258763636363636 37.21774545454546 0.004654545454545455 0.013963636363636364h46.522181818181814l0.00930909090909091 -0.00930909090909091v-37.21774545454546L246.68159999999997 209.45454545454544h-23.258763636363636l-0.00930909090909091 0.004654545454545455Z" stroke-width="1"></path><path fill="#3e3e3f" d="M367.7090909090909 265.3090909090909H162.9090909090909v18.618181818181817h204.79999999999998v-18.618181818181817Z" stroke-width="1"></path><path fill="#ffffff" d="M200.14545454545453 265.3090909090909h-18.618181818181817v18.618181818181817h18.618181818181817v-18.618181818181817Z" stroke-width="1"></path><path fill="#ffffff" d="M237.38181818181818 265.3090909090909h-18.618181818181817v18.618181818181817h18.618181818181817v-18.618181818181817Z" stroke-width="1"></path><path fill="#ffffff" d="M274.6181818181818 265.3090909090909h-18.618181818181817v18.618181818181817h18.618181818181817v-18.618181818181817Z" stroke-width="1"></path><path fill="#ffffff" d="M311.8545454545454 265.3090909090909h-18.618181818181817v18.618181818181817h18.618181818181817v-18.618181818181817Z" stroke-width="1"></path><path fill="#ffffff" d="M349.09090909090907 265.3090909090909h-18.618181818181817v18.618181818181817h18.618181818181817v-18.618181818181817Z" stroke-width="1"></path><path fill="#f99134" d="M125.67272727272727 265.3090909090909c-5.12 0 -8.15941818181818 4.026181818181818 -6.753745454545455 8.950690909090909l4.193745454545454 14.680436363636362C124.52305454545454 293.86472727272724 129.86181818181817 297.8909090909091 134.98181818181817 297.8909090909091h4.654545454545454v-32.58181818181818h-13.963636363636363Z" stroke-width="1"></path><path fill="#f0f1f1" d="M107.05454545454545 330.47272727272724a9.309090909090909 9.309090909090909 0 0 0 9.309090909090909 9.309090909090909h2.9183999999999997l18.618181818181817 -18.618181818181817H116.36363636363636a9.309090909090909 9.309090909090909 0 0 0 -9.309090909090909 9.309090909090909Z" stroke-width="1"></path><path fill="#9ce5f4" d="M246.6909090909091 209.46385454545455 246.68159999999997 209.45454545454544h-23.258763636363636l-0.004654545454545455 0.004654545454545455 -23.26341818181818 37.2224 0.004654545454545455 0.00930909090909091h12.213527272727273L246.6909090909091 212.37294545454546v-2.909090909090909Z" stroke-width="1"></path></svg>