<svg xmlns="http://www.w3.org/2000/svg" fill="none" viewBox="0 0 512 512" height="512" width="512"><path fill="#32bea6" d="M256 512c141.38647272727272 0 256 -114.61352727272727 256 -256S397.38647272727275 0 256 0 0 114.61352727272727 0 256s114.61352727272727 256 256 256Z" stroke-width="1"></path><path fill="#e2e4e5" d="m107.05454545454545 218.76363636363635 143.35999999999999 -107.52a9.313745454545453 9.313745454545453 0 0 1 11.17090909090909 0L404.94545454545454 218.76363636363635 256 330.47272727272724 107.05454545454545 218.76363636363635Z" stroke-width="1"></path><path fill="#8ce3d4" d="M386.3272727272727 275.0557090909091a8.005818181818182 8.005818181818182 0 0 1 -8.001163636363636 8.001163636363636H138.32843636363637A8.005818181818182 8.005818181818182 0 0 1 130.3272727272727 275.0557090909091v-128c0 -4.417163636363636 3.584 -8.001163636363636 8.001163636363636 -8.001163636363636h239.99767272727271c4.417163636363636 0 8.001163636363636 3.584 8.001163636363636 8.001163636363636v128Z" stroke-width="1"></path><path fill="#0d9681" d="M370.3249454545454 183.05396363636365v55.998836363636364a27.98312727272727 27.98312727272727 0 0 0 -28.001745454545453 28.001745454545453H174.32669090909093a27.98312727272727 27.98312727272727 0 0 0 -28.001745454545453 -28.001745454545453V183.05396363636365a27.98312727272727 27.98312727272727 0 0 0 28.001745454545453 -28.001745454545453h168.00116363636363a27.978472727272727 27.978472727272727 0 0 0 27.997090909090907 28.001745454545453Z" stroke-width="1"></path><path fill="#c2f8f0" d="M338.32959999999997 223.05512727272725a11.99941818181818 11.99941818181818 0 1 0 0 -23.99883636363636 11.99941818181818 11.99941818181818 0 0 0 0 23.99883636363636Z" stroke-width="1"></path><path fill="#0d9681" d="M178.3296 223.05512727272725a11.99941818181818 11.99941818181818 0 1 0 0 -23.99883636363636 11.99941818181818 11.99941818181818 0 0 0 0 23.99883636363636Z" stroke-width="1"></path><path fill="#c2f8f0" d="M174.32669090909093 267.05454545454546a27.98312727272727 27.98312727272727 0 0 0 -28.001745454545453 -28.001745454545453V183.05396363636365a27.98312727272727 27.98312727272727 0 0 0 28.001745454545453 -28.001745454545453h141.58661818181818l16.00232727272727 -15.997672727272725H138.32843636363637A8.005818181818182 8.005818181818182 0 0 0 130.3272727272727 147.0557090909091v128c0 4.417163636363636 3.584 8.001163636363636 8.001163636363636 8.001163636363636h49.58952727272727l16.00232727272727 -16.00232727272727h-29.5936Z" stroke-width="1"></path><path fill="#17b198" d="M146.32494545454546 183.05396363636365v55.998836363636364a27.98312727272727 27.98312727272727 0 0 1 28.001745454545453 28.001745454545453h29.588945454545453l26.95912727272727 -26.95912727272727a39.84290909090909 39.84290909090909 0 0 1 -12.548654545454546 -29.03970909090909A40.00116363636363 40.00116363636363 0 0 1 258.3272727272727 171.05454545454543a39.84290909090909 39.84290909090909 0 0 1 29.03970909090909 12.548654545454546l28.550981818181818 -28.54632727272727h-141.59127272727272a27.978472727272727 27.978472727272727 0 0 1 -28.001745454545453 27.997090909090907Zm44.00407272727273 28.001745454545453a11.99941818181818 11.99941818181818 0 1 1 -23.99418181818182 0 11.99941818181818 11.99941818181818 0 0 1 23.99418181818182 0Z" stroke-width="1"></path><path fill="#c2f8f0" d="M258.3272727272727 251.05687272727272a40.00116363636363 40.00116363636363 0 1 0 0 -80.00232727272726 40.00116363636363 40.00116363636363 0 0 0 0 80.00232727272726Z" stroke-width="1"></path><path fill="#17b198" d="M258.27141818181815 190.3616c1.3917090909090908 0 2.499490909090909 1.107781818181818 2.499490909090909 2.499490909090909v0.6749090909090908a20.107636363636363 20.107636363636363 0 0 1 6.9632 2.3086545454545453 3.220945454545454 3.220945454545454 0 0 1 1.7268363636363635 2.8811636363636364 3.1976727272727272 3.1976727272727272 0 0 1 -3.2628363636363633 3.220945454545454 3.4909090909090907 3.4909090909090907 0 0 1 -1.680290909090909 -0.43287272727272724 18.324945454545453 18.324945454545453 0 0 0 -3.984290909090909 -1.6337454545454544v7.302981818181817c7.298327272727272 1.968872727272727 10.421527272727271 4.947781818181817 10.421527272727271 10.323781818181818 0 5.3806545454545445 -4.128581818181818 8.834327272727272 -10.179490909090909 9.509236363636363v2.5460363636363637a2.480872727272727 2.480872727272727 0 0 1 -2.499490909090909 2.499490909090909 2.480872727272727 2.480872727272727 0 0 1 -2.499490909090909 -2.499490909090909v-2.5925818181818183a23.966254545454543 23.966254545454543 0 0 1 -9.458036363636364 -3.360581818181818 3.248872727272727 3.248872727272727 0 0 1 -1.6337454545454544 -2.8811636363636364c0 -1.8711272727272728 1.4382545454545455 -3.267490909090909 3.3140363636363634 -3.267490909090909 0.6237090909090909 0 1.298618181818182 0.23738181818181817 1.8711272727272728 0.6237090909090909 2.0154181818181818 1.298618181818182 3.937745454545454 2.2109090909090905 6.148654545454545 2.6903272727272722v-7.633454545454545c-6.916654545454545 -1.8711272727272728 -10.323781818181818 -4.51490909090909 -10.323781818181818 -10.226036363636364 0 -5.282909090909091 4.035490909090909 -8.838981818181818 10.0864 -9.462690909090908v-0.5771636363636363a2.4762181818181817 2.4762181818181817 0 0 1 2.490181818181818 -2.5134545454545454Zm-2.257454545454545 15.564799999999998v-6.483781818181818c-2.304 0.33512727272727266 -3.3140363636363634 1.4894545454545454 -3.3140363636363634 3.0254545454545454 0 1.4848 0.6702545454545453 2.4948363636363635 3.3140363636363634 3.4583272727272725Zm4.51490909090909 8.401454545454545v6.6792727272727275c2.257454545454545 -0.33512727272727266 3.4071272727272723 -1.3963636363636363 3.4071272727272723 -3.1232 0 -1.5872 -0.8145454545454545 -2.643781818181818 -3.4071272727272723 -3.5560727272727273Z" stroke-width="1"></path><path fill="#ffffff" d="M246.30923636363636 223.59970909090907a3.239563636363636 3.239563636363636 0 0 1 -1.629090909090909 -2.8811636363636364c0 -1.8711272727272728 1.4382545454545455 -3.2628363636363633 3.309381818181818 -3.2628363636363633 0.6237090909090909 0 1.298618181818182 0.23738181818181817 1.8711272727272728 0.6237090909090909 0.656290909090909 0.4235636363636363 1.3032727272727274 0.7354181818181817 1.9549090909090907 1.0752l4.189090909090909 -4.189090909090909v-1.8292363636363635c-6.907345454545454 -1.8711272727272728 -10.314472727272728 -4.510254545454545 -10.314472727272728 -10.21672727272727 0 -5.278254545454545 4.0308363636363636 -8.82501818181818 10.07709090909091 -9.453381818181818v-0.5725090909090909c0 -1.3917090909090908 1.1031272727272725 -2.4948363636363635 2.4948363636363635 -2.4948363636363635 1.3917090909090908 0 2.4948363636363635 1.1031272727272725 2.4948363636363635 2.4948363636363635v0.6702545454545453a20.205381818181817 20.205381818181817 0 0 1 6.958545454545455 2.2993454545454544 3.220945454545454 3.220945454545454 0 0 1 1.7268363636363635 2.8811636363636364 3.1976727272727272 3.1976727272727272 0 0 1 -3.2628363636363633 3.2162909090909086 3.4909090909090907 3.4909090909090907 0 0 1 -1.680290909090909 -0.43287272727272724 18.208581818181816 18.208581818181816 0 0 0 -3.984290909090909 -1.629090909090909v7.289018181818181c0.8936727272727273 0.2420363636363636 1.722181818181818 0.4980363636363636 2.4948363636363635 0.7726545454545455l24.361890909090906 -24.366545454545456a39.8336 39.8336 0 0 0 -29.03970909090909 -12.548654545454546 40.00116363636363 40.00116363636363 0 0 0 -40.00116363636363 40.00116363636363 39.84290909090909 39.84290909090909 0 0 0 12.548654545454546 29.03970909090909l16.123345454545454 -16.11869090909091c-0.23272727272727273 -0.1210181818181818 -0.47476363636363633 -0.23272727272727273 -0.6935272727272727 -0.3677090909090909Z" stroke-width="1"></path><path fill="#ffffff" d="M178.32494545454543 223.05512727272725a11.99941818181818 11.99941818181818 0 1 0 0 -23.99883636363636 11.99941818181818 11.99941818181818 0 0 0 0 23.99883636363636Z" stroke-width="1"></path><path fill="#ffffff" d="M256 199.49381818181817v6.446545454545454c-2.643781818181818 -0.9355636363636364 -3.309381818181818 -1.9828363636363635 -3.309381818181818 -3.472290909090909s0.9914181818181818 -2.643781818181818 3.309381818181818 -2.9742545454545453Z" stroke-width="1"></path><path fill="#ffffff" d="M404.94545454545454 218.76363636363635 256 330.47272727272724 107.05454545454545 218.76363636363635v186.1818181818182h297.8909090909091V218.76363636363635Z" stroke-width="1"></path></svg>