<svg xmlns="http://www.w3.org/2000/svg" fill="none" viewBox="0 0 512 512" height="512" width="512"><path fill="#32bea6" d="M256 512c141.38647272727272 0 256 -114.61352727272727 256 -256S397.38647272727275 0 256 0 0 114.61352727272727 0 256s114.61352727272727 256 256 256Z" stroke-width="1"></path><path fill="#0484ab" d="M256 404.94545454545454c82.2597818181818 0 148.94545454545454 -66.68567272727272 148.94545454545454 -148.94545454545454 0 -82.2597818181818 -66.68567272727272 -148.94545454545454 -148.94545454545454 -148.94545454545454 -82.2597818181818 0 -148.94545454545454 66.68567272727272 -148.94545454545454 148.94545454545454 0 82.2597818181818 66.68567272727272 148.94545454545454 148.94545454545454 148.94545454545454Z" stroke-width="1"></path><path fill="#059bbf" d="M107.05454545454545 256c0 82.2597818181818 66.68567272727272 148.94545454545454 148.94545454545454 148.94545454545454V107.05454545454545c-82.2597818181818 0 -148.94545454545454 66.68567272727272 -148.94545454545454 148.94545454545454Z" stroke-width="1"></path><path fill="#ffffff" d="M255.0085818181818 306.9765818181818c-6.5024 0 -11.310545454545455 -4.808145454545454 -12.157672727272727 -11.310545454545455l-2.8299636363636362 -24.319999999999997c-1.1310545454545453 -7.633454545454545 3.393163636363636 -13.288727272727272 11.026618181818183 -14.14050909090909 26.582109090909093 -2.5460363636363637 41.28581818181818 -12.725527272727271 41.28581818181818 -30.538472727272726 0 -18.29701818181818 -14.219636363636363 -27.42923636363636 -32.52130909090909 -27.42923636363636 -14.987636363636364 0 -27.145309090909088 5.3713454545454535 -38.45585454545454 15.550836363636364 -11.673599999999999 9.341672727272728 -26.298181818181817 0.6981818181818181 -26.298181818181817 -11.594472727272727 0 -4.240290909090909 1.6942545454545452 -8.76450909090909 5.6552727272727275 -12.157672727272727 14.987636363636364 -14.14050909090909 33.931636363636365 -23.472872727272726 59.950545454545455 -23.472872727272726 37.874036363636364 0 66.45294545454544 20.396218181818178 66.45294545454544 57.97236363636363 0 35.630545454545455 -25.734981818181815 51.74923636363636 -57.12058181818182 57.12058181818182l-1.1310545454545453 13.009454545454544c-1.1310545454545453 6.223127272727273 -5.6552727272727275 11.310545454545455 -12.157672727272727 11.310545454545455h-1.6989090909090907Zm0 20.64290909090909c11.594472727272727 0 20.07970909090909 8.480581818181818 20.07970909090909 19.511854545454547v2.8299636363636362c0 11.026618181818183 -8.480581818181818 19.511854545454547 -20.07970909090909 19.511854545454547 -11.594472727272727 0 -20.07505454545454 -8.480581818181818 -20.07505454545454 -19.511854545454547v-2.8299636363636362c-0.004654545454545455 -11.031272727272727 8.480581818181818 -19.511854545454547 20.07505454545454 -19.511854545454547Z" stroke-width="1"></path></svg>