<svg xmlns="http://www.w3.org/2000/svg" fill="none" viewBox="0 0 512 512" height="512" width="512"><path fill="#25B7D3" d="M256 512c141.38647272727272 0 256 -114.61352727272727 256 -256S397.38647272727275 0 256 0 0 114.61352727272727 0 256s114.61352727272727 256 256 256Z" stroke-width="1"></path><path fill="#F0F1F1" d="M125.67272727272727 386.3272727272727V116.36363636363636a9.309090909090909 9.309090909090909 0 1 0 -18.618181818181817 0v288.58181818181816h288.58181818181816a9.309090909090909 9.309090909090909 0 1 0 0 -18.618181818181817H125.67272727272727Z" stroke-width="1"></path><path fill="#0484AB" d="M209.45454545454544 311.8545454545454H153.6v74.47272727272727h55.85454545454545V311.8545454545454Z" stroke-width="1"></path><path fill="#0484AB" d="M293.23636363636365 260.6545454545454H237.38181818181818v125.67272727272727h55.85454545454545V260.6545454545454Z" stroke-width="1"></path><path fill="#0484AB" d="M377.0181818181818 158.25454545454545H321.16363636363633v228.07272727272726h55.85454545454545V158.25454545454545Z" stroke-width="1"></path><path fill="#9CE5F4" d="M327.0795636363636 207.89527272727273c1.8757818181818182 -42.40756363636364 -30.976 -78.30807272727273 -73.38356363636363 -80.18385454545454 -42.40756363636364 -1.8757818181818182 -78.30807272727273 30.976 -80.18385454545454 73.38356363636363a76.52538181818181 76.52538181818181 0 0 0 7.596218181818181 36.896581818181815L114.56232727272726 304.7098181818182c5.352727272727272 15.979054545454543 16.020945454545455 26.624 32.013963636363634 31.93483636363636l65.40101818181817 -65.56858181818181a76.4509090909091 76.4509090909091 0 0 0 34.9184 10.207418181818182c42.40756363636364 1.8711272727272728 78.30807272727273 -30.98065454545454 80.18385454545454 -73.38821818181817Z" stroke-width="1"></path><path fill="#C9F2F8" d="M253.696 127.71141818181817c-42.40756363636364 -1.8804363636363637 -78.30807272727273 30.976 -80.18385454545454 73.38356363636363a76.53469090909091 76.53469090909091 0 0 0 7.596218181818181 36.896581818181815L114.56232727272726 304.7098181818182c2.9789090909090907 8.904145454545453 7.675345454545455 16.08610909090909 13.958981818181819 21.676218181818182L304.64 150.26734545454545c-13.111854545454545 -13.149090909090908 -30.93410909090909 -21.671563636363633 -50.943999999999996 -22.55592727272727Z" stroke-width="1"></path><path fill="#40C9E7" d="M250.2981818181818 259.3931636363636c30.31970909090909 0 54.900363636363636 -24.576 54.900363636363636 -54.900363636363636 0 -30.31970909090909 -24.576 -54.900363636363636 -54.900363636363636 -54.900363636363636 -30.31970909090909 0 -54.900363636363636 24.576 -54.900363636363636 54.900363636363636 0 30.31970909090909 24.576 54.900363636363636 54.900363636363636 54.900363636363636Z" stroke-width="1"></path><path fill="#6FDAF1" d="M252.7232 149.64829090909092c-30.291781818181818 -1.3405090909090907 -55.93367272727272 22.12770909090909 -57.274181818181816 52.414836363636354 -0.7121454545454545 16.048872727272727 5.585454545454545 30.74792727272727 16.128 41.26254545454545l77.54938181818181 -77.55403636363636a54.630399999999995 54.630399999999995 0 0 0 -36.4032 -16.123345454545454Z" stroke-width="1"></path><path fill="#84462D" d="M181.1083636363636 237.99156363636362 114.56232727272726 304.7098181818182c5.352727272727272 15.979054545454543 16.020945454545455 26.624 32.013963636363634 31.93483636363636l65.40101818181817 -65.56858181818181a77.2096 77.2096 0 0 1 -30.86894545454545 -33.08450909090909Z" stroke-width="1"></path><path fill="#9C6144" d="M181.1083636363636 237.99156363636362 114.56232727272726 304.7098181818182c2.9789090909090907 8.904145454545453 7.675345454545455 16.08610909090909 13.958981818181819 21.676218181818182L196.06807272727272 258.8392727272727a76.80930909090908 76.80930909090908 0 0 1 -14.95970909090909 -20.847709090909092Z" stroke-width="1"></path><path fill="#F3B607" d="m197.8461090909091 285.23519999999996 14.126545454545454 -14.163781818181818a77.13512727272726 77.13512727272726 0 0 1 -30.864290909090908 -33.079854545454545l-15.276218181818182 15.313454545454546 32.013963636363634 31.93018181818182Z" stroke-width="1"></path><path fill="#FBE158" d="m181.1083636363636 237.99156363636362 -15.276218181818182 15.313454545454546 17.906036363636364 17.864145454545454 12.325236363636364 -12.325236363636364a76.9861818181818 76.9861818181818 0 0 1 -14.955054545454544 -20.852363636363638Z" stroke-width="1"></path></svg>