<svg xmlns="http://www.w3.org/2000/svg" fill="none" viewBox="0 0 512 512" height="512" width="512"><path fill="#32bea6" d="M256 512c141.38647272727272 0 256 -114.61352727272727 256 -256S397.38647272727275 0 256 0 0 114.61352727272727 0 256s114.61352727272727 256 256 256Z" stroke-width="1"></path><path fill="#8ce3d4" d="m330.3563636363636 193.49876363636363 -203.17090909090908 92.95127272727272 54.22545454545455 118.50472727272727 203.17090909090908 -92.95127272727272 -54.22545454545455 -118.50472727272727Zm-83.78181818181818 69.81818181818181c0 -10.286545454545454 8.331636363636363 -18.618181818181817 18.618181818181817 -18.618181818181817s18.618181818181817 8.331636363636363 18.618181818181817 18.618181818181817c0 24.627200000000002 -37.236363636363635 24.659781818181816 -37.236363636363635 0Z" stroke-width="1"></path><path fill="#0d9681" d="m346.8334545454545 319.03185454545456 -135.44727272727272 61.952c-6.376727272727273 -14.010181818181817 -22.993454545454547 -20.15418181818182 -37.00363636363636 -13.777454545454544l-23.226181818181818 -50.781090909090906c14.010181818181817 -6.376727272727273 20.20072727272727 -22.993454545454547 13.777454545454544 -37.00363636363636l62.09163636363636 -28.39272727272727c5.166545454545455 10.24 11.636363636363637 18.05963636363636 21.92290909090909 21.410909090909087 8.634181818181817 15.26690909090909 31.664872727272726 11.250036363636362 34.58327272727272 -6.004363636363636a18.49250909090909 18.49250909090909 0 0 0 -7.074909090909091 -17.919999999999998c-3.165090909090909 -2.373818181818182 -7.028363636363636 -3.8167272727272725 -11.264 -3.8167272727272725 -5.911272727272727 0 -11.217454545454546 2.746181818181818 -14.568727272727271 7.074909090909091 -1.8618181818181818 -1.8618181818181818 -3.584 -4.654545454545454 -5.678545454545454 -8.936727272727271l55.43563636363636 -25.367272727272727c6.376727272727273 14.010181818181817 22.993454545454547 20.15418181818182 37.00363636363636 13.777454545454544l23.226181818181818 50.781090909090906c-14.010181818181817 6.423272727272726 -20.20072727272727 22.993454545454547 -13.777454545454544 37.00363636363636Z" stroke-width="1"></path><path fill="#c2f8f0" d="M246.57454545454544 263.3169454545455c0 -10.286545454545454 8.331636363636363 -18.618181818181817 18.618181818181817 -18.618181818181817s18.618181818181817 8.331636363636363 18.618181818181817 18.618181818181817c0 2.276072727272727 -0.46545454545454545 4.426472727272727 -1.2101818181818182 6.441890909090908l56.70632727272727 -56.70632727272727 -8.946036363636363 -19.553745454545453 -203.17090909090908 92.95127272727272 43.54792727272727 95.1714909090909L271.6392727272727 280.7202909090909c-12.520727272727273 4.6359272727272725 -25.06472727272727 -4.7616 -25.06472727272727 -17.403345454545452Z" stroke-width="1"></path><path fill="#17b198" d="M257.9176727272727 280.4596363636364a19.316363636363636 19.316363636363636 0 0 1 -8.969309090909091 -8.019781818181817c-10.286545454545454 -3.351272727272727 -16.756363636363638 -11.17090909090909 -21.92290909090909 -21.410909090909087l-62.09163636363636 28.39272727272727c6.423272727272726 14.010181818181817 0.23272727272727273 30.62690909090909 -13.777454545454544 37.00363636363636l23.226181818181818 50.781090909090906a27.885381818181816 27.885381818181816 0 0 1 13.228218181818182 -2.4576l83.94938181818182 -83.94938181818182a19.02312727272727 19.02312727272727 0 0 1 -13.642472727272727 -0.33978181818181813Z" stroke-width="1"></path><path fill="#17b198" d="m300.38109090909086 217.46967272727272 -55.43563636363636 25.367272727272727c2.0945454545454547 4.282181818181818 3.8167272727272725 7.074909090909091 5.678545454545454 8.936727272727271 3.0952727272727274 -4.016872727272727 8.71330909090909 -7.074909090909091 14.568727272727271 -7.074909090909091 4.086690909090909 0 8.28509090909091 1.5778909090909092 11.264 3.8167272727272725a18.60887272727273 18.60887272727273 0 0 1 6.204509090909091 21.182836363636362l36.71039999999999 -36.71039999999999a27.769018181818183 27.769018181818183 0 0 1 -18.990545454545455 -15.518254545454544Z" stroke-width="1"></path><path fill="#3e3e3f" d="m291.6491636363636 211.20465454545453 -17.147345454545455 -38.511709090909086v-65.6290909090909h-18.618181818181817v70.00436363636364l18.50181818181818 42.0352 17.26370909090909 -7.898763636363636Z" stroke-width="1"></path><path fill="#c2f8f0" d="M323.60727272727274 277.5552a9.309090909090909 9.309090909090909 0 1 0 0 -18.618181818181817 9.309090909090909 9.309090909090909 0 0 0 0 18.618181818181817Z" stroke-width="1"></path><path fill="#ffffff" d="M188.15999999999997 339.5211636363636a9.309090909090909 9.309090909090909 0 1 0 0 -18.618181818181817 9.309090909090909 9.309090909090909 0 0 0 0 18.618181818181817Z" stroke-width="1"></path><path fill="#cfd3d4" d="M250.624 251.7736727272727c-1.8618181818181818 -1.8618181818181818 -3.584 -4.654545454545454 -5.678545454545454 -8.936727272727271l-17.919999999999998 8.192c5.166545454545455 10.24 11.636363636363637 18.05963636363636 21.92290909090909 21.410909090909087 -1.4894545454545454 -2.699636363636363 -2.373818181818182 -5.818181818181818 -2.373818181818182 -9.12290909090909 0 -4.3287272727272725 1.4894545454545454 -8.331636363636363 4.049454545454545 -11.543272727272727Z" stroke-width="1"></path><path fill="#c2f8f0" d="M271.86734545454544 332.96756363636365c-18.711272727272725 8.564363636363636 -40.82036363636363 0.32581818181818184 -49.338181818181816 -18.385454545454547 -9.783854545454544 -21.32712727272727 2.550690909090909 -46.149818181818176 24.52945454545454 -51.52581818181818v0.13963636363636361c0 21.01061818181818 26.032872727272725 24.571345454545455 34.606545454545454 8.936727272727271 19.595636363636363 18.511127272727272 13.74021818181818 50.059636363636365 -9.797818181818181 60.834909090909086Z" stroke-width="1"></path><path fill="#ffffff" d="M258.3458909090909 280.5946181818182c-7.451927272727272 -2.9556363636363634 -11.771345454545454 -10.253963636363634 -11.771345454545454 -17.282327272727272l0.00930909090909091 -0.1210181818181818c-21.8624 5.743709090909091 -33.72218181818182 30.315054545454544 -24.05469090909091 51.38618181818181a37.09672727272727 37.09672727272727 0 0 0 6.004363636363636 9.243927272727273l43.10109090909091 -43.10109090909091c-4.719709090909091 1.7501090909090908 -8.86690909090909 1.5220363636363636 -13.288727272727272 -0.12567272727272727Z" stroke-width="1"></path><path fill="#3e3e3f" d="M283.5316363636363 266.4354909090909c-6.376727272727273 4.375272727272727 -14.010181818181817 7.773090909090908 -22.481454545454543 7.773090909090908 -16.416581818181818 0 -26.912581818181817 -8.084945454545455 -34.02472727272727 -22.178909090909087 -3.072 -6.050909090909091 -5.678545454545454 -14.638545454545454 -8.378181818181819 -19.293090909090907h-13.963636363636363l13.963636363636363 -47.546181818181815c14.708363636363636 31.418181818181818 21.457454545454546 48.37469090909091 26.298181818181817 58.14923636363636 2.0945454545454547 4.282181818181818 3.8167272727272725 6.823563636363636 5.678545454545454 8.685381818181819 4.4544 4.631272727272727 14.596654545454545 6.1952 25.832727272727272 -3.444363636363636a18.362181818181817 18.362181818181817 0 0 1 7.074909090909091 17.854836363636363Z" stroke-width="1"></path><path fill="#17b198" d="M272.79825454545454 299.82719999999995c-2.56 -5.678545454545454 -7.307636363636363 -7.307636363636363 -16.011636363636363 -5.864727272727272l-3.4909090909090907 -7.7265454545454535c1.536 -0.23272727272727273 3.211636363636363 -0.27927272727272723 4.980363636363636 -0.18618181818181817 0.6981818181818181 0.04654545454545454 0.6981818181818181 -0.09309090909090909 1.3032727272727274 -0.37236363636363634 1.629090909090909 -0.7447272727272727 1.442909090909091 -2.4203636363636365 1.442909090909091 -4.142545454545455v-0.04654545454545454c0 -0.4189090909090909 -4.468363636363636 -1.4894545454545454 -6.609454545454545 -2.9789090909090907 -1.536 0.18618181818181817 -2.7229090909090905 0.46545454545454545 -4.305454545454546 0.9309090909090909l-0.14894545454545455 -0.6981818181818181a2.727563636363636 2.727563636363636 0 0 0 -3.728290909090909 -1.442909090909091 2.806690909090909 2.806690909090909 0 0 0 -1.4010181818181817 3.8167272727272725l0.30254545454545456 0.6516363636363637c-6.0974545454545455 3.584 -8.648145454545455 9.262545454545455 -6.0881454545454545 14.847999999999999 2.746181818181818 6.050909090909091 7.638109090909091 7.214545454545455 15.876654545454544 5.818181818181818l3.6817454545454544 8.09890909090909c-2.56 0.5585454545454545 -5.026909090909091 0.512 -7.773090909090908 0.09309090909090909 -0.7912727272727272 -0.09309090909090909 -1.629090909090909 -0.04654545454545454 -2.2807272727272725 0.27927272727272723a3.7236363636363636 3.7236363636363636 0 0 0 -1.9549090909090907 5.026909090909091c0.6516363636363637 1.3963636363636363 1.7687272727272727 2.0945454545454547 3.1185454545454547 2.2807272727272725 3.8632727272727267 0.46545454545454545 7.819636363636363 0.13963636363636361 11.636363636363637 -1.024l1.2567272727272727 2.746181818181818c0.6516363636363637 1.442909090909091 2.373818181818182 2.0945454545454547 3.8632727272727267 1.3963636363636363 1.442909090909091 -0.6516363636363637 2.0945454545454547 -2.327272727272727 1.3963636363636363 -3.8167272727272725l-1.2101818181818182 -2.699636363636363c6.050909090909091 -3.6305454545454543 8.750545454545454 -9.309090909090909 6.144 -14.987636363636364Zm-26.53090909090909 -7.033018181818181c-0.7447272727272727 -1.629090909090909 -0.23272727272727273 -3.351272727272727 2.048 -4.840727272727273l3.1185454545454547 6.888727272727272c-3.258181818181818 0.23738181818181817 -4.468363636363636 -0.5073454545454545 -5.166545454545455 -2.048Zm17.221818181818183 15.783563636363636 -3.211636363636363 -7.028363636363636c3.165090909090909 -0.32581818181818184 4.561454545454545 0.4189090909090909 5.306181818181818 2.0945454545454547 0.8378181818181818 1.8152727272727271 0.13963636363636361 3.4909090909090907 -2.0945454545454547 4.933818181818181Z" stroke-width="1"></path></svg>