<svg xmlns="http://www.w3.org/2000/svg" fill="none" viewBox="0 0 512 512" height="512" width="512"><path fill="#32bea6" d="M256 512c141.38647272727272 0 256 -114.61352727272727 256 -256S397.38647272727275 0 256 0 0 114.61352727272727 0 256s114.61352727272727 256 256 256Z" stroke-width="1"></path><path fill="#facb1b" d="M349.09090909090907 330.4820363636363c-30.845672727272724 0 -55.85454545454545 -6.251054545454545 -55.85454545454545 -13.963636363636363v74.47272727272727c0 7.679999999999999 24.99490909090909 13.963636363636363 55.85454545454545 13.963636363636363s55.85454545454545 -6.283636363636364 55.85454545454545 -13.963636363636363v-74.47272727272727c0 7.707927272727272 -25.008872727272728 13.963636363636363 -55.85454545454545 13.963636363636363Z" stroke-width="1"></path><path fill="#fbec9a" d="M349.09090909090907 330.4820363636363c30.845672727272724 0 55.85454545454545 -6.251054545454545 55.85454545454545 -13.963636363636363s-25.008872727272728 -13.963636363636363 -55.85454545454545 -13.963636363636363 -55.85454545454545 6.251054545454545 -55.85454545454545 13.963636363636363 25.008872727272728 13.963636363636363 55.85454545454545 13.963636363636363Z" stroke-width="1"></path><path fill="#f3b607" d="M293.23636363636365 346.54952727272723c12.665018181818182 7.102836363636364 39.64276363636363 9.239272727272727 55.85454545454545 9.239272727272727 16.21178181818182 0 43.18952727272727 -2.1364363636363635 55.85454545454545 -9.239272727272727v-9.090327272727272c0 3.393163636363636 -19.004509090909092 11.347781818181819 -55.85454545454545 11.347781818181819s-55.85454545454545 -7.949963636363636 -55.85454545454545 -11.347781818181819v9.090327272727272Z" stroke-width="1"></path><path fill="#f3b607" d="M293.23636363636365 374.47679999999997c12.665018181818182 7.102836363636364 39.64276363636363 9.239272727272727 55.85454545454545 9.239272727272727 16.21178181818182 0 43.18952727272727 -2.1364363636363635 55.85454545454545 -9.239272727272727v-9.090327272727272c0 3.393163636363636 -19.004509090909092 11.347781818181819 -55.85454545454545 11.347781818181819s-55.85454545454545 -7.949963636363636 -55.85454545454545 -11.347781818181819v9.090327272727272Z" stroke-width="1"></path><path fill="#8ce3d4" d="M323.23025454545456 398.1963636363636a6.749090909090908 6.749090909090908 0 0 1 -6.753745454545455 6.753745454545455H113.8082909090909A6.749090909090908 6.749090909090908 0 0 1 107.05454545454545 398.1963636363636V290.1085090909091c0 -3.7329454545454546 3.0254545454545454 -6.753745454545455 6.753745454545455 -6.753745454545455h202.6682181818182c3.7329454545454546 0 6.753745454545455 3.0254545454545454 6.753745454545455 6.753745454545455V398.1963636363636Z" stroke-width="1"></path><path fill="#0d9681" d="M309.72276363636365 320.50734545454543v47.290181818181814a23.626472727272724 23.626472727272724 0 0 0 -23.645090909090907 23.645090909090907H144.2117818181818a23.626472727272724 23.626472727272724 0 0 0 -23.645090909090907 -23.645090909090907v-47.290181818181814a23.626472727272724 23.626472727272724 0 0 0 23.645090909090907 -23.645090909090907h141.8658909090909a23.626472727272724 23.626472727272724 0 0 0 23.645090909090907 23.645090909090907Z" stroke-width="1"></path><path fill="#c2f8f0" d="M282.6984727272727 354.2853818181818a10.132945454545455 10.132945454545455 0 1 0 0 -20.26589090909091 10.132945454545455 10.132945454545455 0 0 0 0 20.26589090909091Z" stroke-width="1"></path><path fill="#0d9681" d="M147.58632727272726 354.2853818181818a10.132945454545455 10.132945454545455 0 1 0 0 -20.26589090909091 10.132945454545455 10.132945454545455 0 0 0 0 20.26589090909091Z" stroke-width="1"></path><path fill="#c2f8f0" d="M144.2117818181818 391.4426181818182a23.626472727272724 23.626472727272724 0 0 0 -23.645090909090907 -23.645090909090907v-47.290181818181814a23.626472727272724 23.626472727272724 0 0 0 23.645090909090907 -23.645090909090907H263.7730909090909l13.512145454545454 -13.512145454545454H113.8082909090909A6.749090909090908 6.749090909090908 0 0 0 107.05454545454545 290.1038545454545V398.1963636363636c0 3.7329454545454546 3.0254545454545454 6.753745454545455 6.753745454545455 6.753745454545455h41.87229090909091l13.512145454545454 -13.512145454545454h-24.980945454545452v0.004654545454545455Z" stroke-width="1"></path><path fill="#17b198" d="M120.5666909090909 320.50734545454543v47.290181818181814a23.626472727272724 23.626472727272724 0 0 1 23.645090909090907 23.645090909090907h24.9856l22.76538181818182 -22.76538181818182a33.64770909090909 33.64770909090909 0 0 1 -10.593745454545454 -24.5248 33.77803636363636 33.77803636363636 0 0 1 33.77803636363636 -33.77803636363636 33.65236363636364 33.65236363636364 0 0 1 24.520145454545453 10.593745454545454l24.10589090909091 -24.10589090909091H144.2117818181818a23.626472727272724 23.626472727272724 0 0 1 -23.645090909090907 23.645090909090907Zm37.152581818181815 23.645090909090907a10.132945454545455 10.132945454545455 0 1 1 -20.270545454545456 0 10.132945454545455 10.132945454545455 0 0 1 20.270545454545456 0Z" stroke-width="1"></path><path fill="#c2f8f0" d="M215.1424 377.9304727272727a33.77803636363636 33.77803636363636 0 1 0 0 -67.55607272727272 33.77803636363636 33.77803636363636 0 0 0 0 67.55607272727272Z" stroke-width="1"></path><path fill="#17b198" d="M215.09585454545456 326.67927272727275a2.0945454545454547 2.0945454545454547 0 0 1 2.1085090909090907 2.1085090909090907v0.5678545454545454c2.1876363636363636 0.32581818181818184 4.137890909090909 0.9727999999999999 5.878690909090908 1.9455999999999998a2.718254545454545 2.718254545454545 0 0 1 1.456872727272727 2.4296727272727274 2.699636363636363 2.699636363636363 0 0 1 -2.7554909090909088 2.718254545454545 2.923054545454545 2.923054545454545 0 0 1 -1.4196363636363636 -0.3677090909090909 15.467054545454545 15.467054545454545 0 0 0 -3.3652363636363636 -1.3777454545454544v6.167272727272727c6.162618181818182 1.6616727272727272 8.797090909090908 4.175127272727273 8.797090909090908 8.717963636363637s-3.4816 7.461236363636363 -8.59229090909091 8.02909090909091v2.1504a2.0945454545454547 2.0945454545454547 0 0 1 -2.1085090909090907 2.1085090909090907 2.0945454545454547 2.0945454545454547 0 0 1 -2.1085090909090907 -2.1085090909090907v-2.192290909090909a20.228654545454546 20.228654545454546 0 0 1 -7.9872 -2.839272727272727 2.746181818181818 2.746181818181818 0 0 1 -1.3777454545454544 -2.4296727272727274c0 -1.5825454545454545 1.2101818181818182 -2.7601454545454542 2.7927272727272725 -2.7601454545454542 0.5306181818181818 0 1.0984727272727273 0.20014545454545452 1.5825454545454545 0.5259636363636363 1.7082181818181816 1.0938181818181818 3.328 1.8664727272727273 5.194472727272728 2.2714181818181816v-6.446545454545454c-5.841454545454544 -1.5825454545454545 -8.717963636363637 -3.812072727272727 -8.717963636363637 -8.634181818181817 0 -4.459054545454545 3.4071272727272723 -7.465890909090909 8.517818181818182 -7.9918545454545455v-0.4840727272727272a2.0898909090909092 2.0898909090909092 0 0 1 2.103854545454545 -2.1085090909090907Zm-1.9083636363636363 13.139781818181817v-5.473745454545454c-1.9455999999999998 0.2839272727272727 -2.797381818181818 1.2567272727272727 -2.797381818181818 2.5553454545454546 0 1.2567272727272727 0.5678545454545454 2.1085090909090907 2.7927272727272725 2.9183999999999997Zm3.8167272727272725 7.098181818181818v5.636654545454546c1.9037090909090908 -0.2839272727272727 2.876509090909091 -1.1776 2.876509090909091 -2.634472727272727 0 -1.3405090909090907 -0.6888727272727272 -2.234181818181818 -2.876509090909091 -3.002181818181818Z" stroke-width="1"></path><path fill="#ffffff" d="M204.9954909090909 354.7461818181818a2.736872727272727 2.736872727272727 0 0 1 -1.3777454545454544 -2.4296727272727274c0 -1.5778909090909092 1.2148363636363637 -2.7554909090909088 2.7927272727272725 -2.7554909090909088 0.5259636363636363 0 1.0938181818181818 0.20014545454545452 1.5778909090909092 0.5259636363636363 0.553890909090909 0.3584 1.1031272727272725 0.6190545454545454 1.6477090909090908 0.9076363636363636l3.5374545454545454 -3.5374545454545454v-1.545309090909091c-5.832145454545453 -1.5778909090909092 -8.708654545454545 -3.8074181818181816 -8.708654545454545 -8.629527272727273 0 -4.4544 3.402472727272727 -7.451927272727272 8.50850909090909 -7.982545454545455v-0.4840727272727272c0 -1.1776 0.9309090909090909 -2.1085090909090907 2.103854545454545 -2.1085090909090907s2.103854545454545 0.9309090909090909 2.103854545454545 2.1085090909090907v0.5678545454545454c2.1876363636363636 0.3211636363636364 4.133236363636364 0.9727999999999999 5.874036363636363 1.9409454545454543a2.727563636363636 2.727563636363636 0 0 1 1.456872727272727 2.4296727272727274 2.699636363636363 2.699636363636363 0 0 1 -2.7554909090909088 2.7135999999999996 2.9696 2.9696 0 0 1 -1.4196363636363636 -0.36305454545454546 15.467054545454545 15.467054545454545 0 0 0 -3.3652363636363636 -1.3777454545454544v6.157963636363636c0.7540363636363636 0.20479999999999998 1.456872727272727 0.4235636363636363 2.103854545454545 0.6516363636363637l20.573090909090908 -20.573090909090908a33.64305454545454 33.64305454545454 0 0 0 -24.520145454545453 -10.593745454545454 33.77803636363636 33.77803636363636 0 0 0 -33.77803636363636 33.77803636363636 33.65236363636364 33.65236363636364 0 0 0 10.593745454545454 24.5248l13.614545454545453 -13.614545454545453c-0.17687272727272726 -0.10239999999999999 -0.3770181818181818 -0.1954909090909091 -0.5631999999999999 -0.31185454545454544Z" stroke-width="1"></path><path fill="#ffffff" d="M147.58632727272726 354.2853818181818a10.132945454545455 10.132945454545455 0 1 0 0 -20.26589090909091 10.132945454545455 10.132945454545455 0 0 0 0 20.26589090909091Z" stroke-width="1"></path><path fill="#ffffff" d="M213.1781818181818 334.3918545454545v5.445818181818181c-2.234181818181818 -0.7912727272727272 -2.7927272727272725 -1.6756363636363636 -2.7927272727272725 -2.932363636363636s0.8378181818181818 -2.2388363636363633 2.7927272727272725 -2.5134545454545454Z" stroke-width="1"></path><path fill="#facb1b" d="M256.0930909090909 107.06385454545453h-0.18618181818181817a9.216 9.216 0 0 0 -9.216 9.216v10.179490909090909h18.618181818181817v-10.179490909090909a9.216 9.216 0 0 0 -9.216 -9.216Z" stroke-width="1"></path><path fill="#5b5c5f" d="M404.94545454545454 268.2973090909091c-11.636363636363637 -13.265454545454546 -28.765090909090905 -21.597090909090905 -47.802181818181815 -21.597090909090905 -20.573090909090908 0 -38.86545454545454 9.727999999999998 -50.50181818181818 24.855272727272727 -11.636363636363637 -15.127272727272727 -29.92872727272727 -24.855272727272727 -50.50181818181818 -24.855272727272727s-38.86545454545454 9.727999999999998 -50.50181818181818 24.855272727272727c-11.636363636363637 -15.127272727272727 -29.92872727272727 -24.855272727272727 -50.50181818181818 -24.855272727272727 -19.037090909090907 0 -36.165818181818175 8.331636363636363 -47.802181818181815 21.597090909090905 3.3047272727272725 -79.31345454545453 68.65454545454546 -142.61527272727272 148.80581818181818 -142.61527272727272s145.50109090909092 63.30181818181818 148.80581818181818 142.61527272727272Z" stroke-width="1"></path><path fill="#84462d" d="M228.07272727272726 404.9547636363636c-17.864145454545454 0 -30.827054545454544 -9.6256 -35.57003636363636 -26.409890909090908a9.304436363636365 9.304436363636365 0 1 1 17.915345454545456 -5.059490909090909c2.4762181818181817 8.769163636363636 8.089599999999999 12.8512 17.65469090909091 12.8512 17.719854545454545 0 18.618181818181817 -15.508945454545453 18.618181818181817 -18.618181818181817v-121.01818181818182a9.309090909090909 9.309090909090909 0 0 1 18.618181818181817 0v121.01818181818182c0 14.964363636363634 -9.918836363636363 37.236363636363635 -37.236363636363635 37.236363636363635Z" stroke-width="1"></path><path fill="#3e3e3f" d="M307.2 253.68203636363637c0 5.9578181818181815 -0.27927272727272723 11.869090909090907 -0.8378181818181818 17.687272727272724 -11.636363636363637 -15.034181818181818 -29.882181818181817 -24.669090909090908 -50.36218181818182 -24.669090909090908s-38.725818181818184 9.63490909090909 -50.36218181818182 24.669090909090908c-0.5585454545454545 -5.818181818181818 -0.8378181818181818 -11.729454545454544 -0.8378181818181818 -17.687272727272724 0 -49.57090909090909 19.409454545454544 -94.62690909090908 51.06036363636364 -128h0.27927272727272723c31.65090909090909 33.373090909090905 51.06036363636364 78.42909090909092 51.06036363636364 128Z" stroke-width="1"></path></svg>