<svg xmlns="http://www.w3.org/2000/svg" fill="none" viewBox="0 0 512 512" height="512" width="512"><path fill="#32bea6" d="M256 512c141.38647272727272 0 256 -114.61352727272727 256 -256S397.38647272727275 0 256 0 0 114.61352727272727 0 256s114.61352727272727 256 256 256Z" stroke-width="1"></path><path fill="#0484ab" d="M404.94545454545454 134.98181818181817v242.03636363636363c0 15.406545454545453 -12.520727272727273 27.927272727272726 -27.927272727272726 27.927272727272726H134.98181818181817c-15.406545454545453 0 -27.927272727272726 -12.520727272727273 -27.927272727272726 -27.927272727272726V134.98181818181817c0 -15.406545454545453 12.520727272727273 -27.927272727272726 27.927272727272726 -27.927272727272726h242.03636363636363c15.406545454545453 0 27.927272727272726 12.520727272727273 27.927272727272726 27.927272727272726Z" stroke-width="1"></path><path fill="#059bbf" d="M404.94545454545454 148.71272727272725V377.0181818181818c0 15.406545454545453 -12.520727272727273 27.927272727272726 -27.927272727272726 27.927272727272726H134.98181818181817c-15.406545454545453 0 -27.927272727272726 -12.520727272727273 -27.927272727272726 -27.927272727272726V313.0647272727273l52.177454545454545 -33.55927272727273 79.17381818181819 13.963636363636363L310.6909090909091 245.29454545454544l41.704727272727276 -74.05381818181817L404.94545454545454 148.71272727272725Z" stroke-width="1"></path><path fill="#21b2d1" d="M404.94545454545454 186.1818181818182v-9.309090909090909h-32.58181818181818v-18.618181818181817h-9.309090909090909v18.618181818181817h-23.272727272727273v9.309090909090909h23.272727272727273v27.927272727272726h-27.927272727272726v-13.963636363636363h-9.309090909090909v13.963636363636363h-4.654545454545454v9.309090909090909h4.654545454545454v27.927272727272726h-37.236363636363635v37.236363636363635h-27.927272727272726v-9.309090909090909h-9.309090909090909v9.309090909090909h-27.927272727272726v-4.659199999999999h-9.309090909090909V288.58181818181816h-27.927272727272726v-9.309090909090909h-9.309090909090909v9.309090909090909h-27.927272727272726v-4.659199999999999h-9.309090909090909V288.58181818181816h-10.33309090909091v9.309090909090909H139.63636363636363v27.927272727272726h-32.58181818181818v9.309090909090909h32.58181818181818v27.927272727272726h-32.58181818181818v9.309090909090909h32.58181818181818v32.577163636363636h9.309090909090909V372.3636363636364h27.927272727272726v32.58181818181818h9.309090909090909v-32.58181818181818h27.927272727272726v32.577163636363636h9.309090909090909V372.3636363636364h27.927272727272726v32.58181818181818h9.309090909090909v-32.58181818181818h27.927272727272726v32.58181818181818h9.309090909090909v-32.58181818181818h27.927272727272726v32.58181818181818h9.309090909090909v-32.58181818181818h27.927272727272726v32.58181818181818h9.309090909090909v-32.58181818181818h32.58181818181818v-9.309090909090909h-32.58181818181818v-27.927272727272726h32.58181818181818v-9.309090909090909h-32.58181818181818v-27.927272727272726h32.58181818181818v-9.309090909090909h-32.58181818181818v-27.927272727272726h32.58181818181818v-9.309090909090909h-32.58181818181818v-27.927272727272726h32.58181818181818v-9.309090909090909h-32.58181818181818v-27.927272727272726h32.58181818181818ZM297.8909090909091 260.6545454545454h27.927272727272726v27.927272727272726h-27.927272727272726v-27.927272727272726Zm27.927272727272726 37.236363636363635v27.927272727272726h-27.927272727272726v-27.927272727272726h27.927272727272726Zm-37.236363636363635 0v27.927272727272726h-27.927272727272726v-27.927272727272726h27.927272727272726Zm-37.236363636363635 0v27.927272727272726h-27.927272727272726v-27.927272727272726h27.927272727272726Zm-37.236363636363635 0v27.927272727272726h-27.927272727272726v-27.927272727272726h27.927272727272726Zm-65.16363636363636 0h27.927272727272726v27.927272727272726h-27.927272727272726v-27.927272727272726Zm0 65.16363636363636v-27.927272727272726h27.927272727272726v27.927272727272726h-27.927272727272726Zm37.236363636363635 0v-27.927272727272726h27.927272727272726v27.927272727272726h-27.927272727272726Zm37.236363636363635 0v-27.927272727272726h27.927272727272726v27.927272727272726h-27.927272727272726Zm37.236363636363635 0v-27.927272727272726h27.927272727272726v27.927272727272726h-27.927272727272726Zm37.236363636363635 0v-27.927272727272726h27.927272727272726v27.927272727272726h-27.927272727272726Zm65.16363636363636 0h-27.927272727272726v-27.927272727272726h27.927272727272726v27.927272727272726Zm0 -37.236363636363635h-27.927272727272726v-27.927272727272726h27.927272727272726v27.927272727272726Zm0 -37.236363636363635h-27.927272727272726v-27.927272727272726h27.927272727272726v27.927272727272726Zm0 -37.236363636363635h-27.927272727272726v-27.927272727272726h27.927272727272726v27.927272727272726Z" stroke-width="1"></path><path fill="#ffffff" d="m404.94545454545454 138.56581818181817 -49.60349090909091 21.229381818181817c-12.45090909090909 -6.283636363636364 -25.306763636363637 7.582254545454545 -18.222545454545454 19.511854545454547l-27.53629090909091 49.00770909090909a13.870545454545454 13.870545454545454 0 0 0 -15.88130909090909 17.133381818181817l-47.979054545454545 32A13.800727272727272 13.800727272727272 0 0 0 237.38181818181818 274.6181818181818c-5.213090909090909 0 -9.700072727272728 2.8904727272727273 -12.101818181818182 7.1214545454545455l-53.29454545454545 -9.411490909090908c-3.1604363636363635 -19.060363636363633 -31.61832727272727 -12.916363636363636 -27.294254545454542 5.483054545454545L107.05454545454545 301.9869090909091v11.07781818181818l42.68218181818182 -27.45250909090909c6.902690909090909 5.3573818181818185 16.46312727272727 3.165090909090909 20.614981818181818 -4.1472l53.29454545454545 9.402181818181818A13.931054545454543 13.931054545454543 0 0 0 237.37716363636363 302.5454545454545c8.8064 0 15.816145454545454 -8.219927272727272 13.488872727272728 -17.38472727272727l47.98836363636364 -31.98138181818182c13.279418181818182 9.960727272727272 29.77512727272727 -7.74050909090909 18.813672727272724 -20.28450909090909l26.782254545454542 -47.56014545454545c11.45949090909091 4.05410909090909 21.941527272727274 -7.242472727272727 17.598836363636362 -18.231854545454542L404.94545454545454 148.71272727272725v-10.14690909090909Z" stroke-width="1"></path><path fill="#ffffff" d="m274.6181818181818 223.4181818181818 -37.236363636363635 27.927272727272726 -37.236363636363635 -27.927272727272726V139.63636363636363h74.47272727272727v83.78181818181818Z" stroke-width="1"></path><path fill="#f37a10" d="M237.54472727272724 158.9666909090909c2.048 0 3.6724363636363635 1.6244363636363635 3.6724363636363635 3.6724363636363635v0.9867636363636363a29.723927272727273 29.723927272727273 0 0 1 10.235345454545453 3.3885090909090905c1.3405090909090907 0.777309090909091 2.541381818181818 2.1178181818181816 2.541381818181818 4.235636363636363a4.701090909090909 4.701090909090909 0 0 1 -4.798836363636363 4.729018181818182c-0.8471272727272726 0 -1.6942545454545452 -0.20945454545454545 -2.471563636363636 -0.6330181818181818a26.85672727272727 26.85672727272727 0 0 0 -5.860072727272726 -2.4017454545454546v10.728727272727273c10.733381818181817 2.8951272727272728 15.322763636363634 7.2703999999999995 15.322763636363634 15.178472727272727s-6.069527272727273 12.990836363636364 -14.964363636363634 13.9776v3.7422545454545455c0 2.048 -1.6244363636363635 3.6724363636363635 -3.6724363636363635 3.6724363636363635a3.649163636363636 3.649163636363636 0 0 1 -3.6724363636363635 -3.6724363636363635v-3.812072727272727a35.34196363636364 35.34196363636364 0 0 1 -13.907781818181817 -4.943127272727272 4.7802181818181815 4.7802181818181815 0 0 1 -2.4017454545454546 -4.235636363636363c0 -2.7554909090909088 2.1178181818181816 -4.803490909090909 4.868654545454546 -4.803490909090909 0.9169454545454545 0 1.9083636363636363 0.35374545454545453 2.7508363636363633 0.9169454545454545 2.9649454545454543 1.9083636363636363 5.7902545454545455 3.248872727272727 9.034472727272727 3.956363636363636v-11.226763636363636c-10.165527272727273 -2.7554909090909088 -15.178472727272727 -6.637381818181818 -15.178472727272727 -15.034181818181818 0 -7.763781818181817 5.929890909090909 -12.990836363636364 14.824727272727273 -13.907781818181817v-0.8471272727272726a3.658472727272727 3.658472727272727 0 0 1 3.677090909090909 -3.667781818181818Zm-3.318690909090909 22.87243636363636v-9.532509090909091c-3.3885090909090905 0.49338181818181814 -4.868654545454546 2.1876363636363636 -4.868654545454546 4.449745454545454 0 2.1876363636363636 0.9867636363636363 3.667781818181818 4.868654545454546 5.082763636363636Zm6.637381818181818 12.353163636363636v9.811781818181817c3.318690909090909 -0.49338181818181814 5.012945454545454 -2.048 5.012945454545454 -4.589381818181818 0 -2.327272727272727 -1.2008727272727273 -3.877236363636363 -5.012945454545454 -5.2224Z" stroke-width="1"></path></svg>