<svg xmlns="http://www.w3.org/2000/svg" fill="none" viewBox="0 0 512 512" height="512" width="512"><path fill="#32bea6" d="M256 512c141.38647272727272 0 256 -114.61352727272727 256 -256S397.38647272727275 0 256 0 0 114.61352727272727 0 256s114.61352727272727 256 256 256Z" stroke-width="1"></path><path fill="#4ac3af" d="M278.5978181818181 110.81076363636362a8.722618181818182 8.722618181818182 0 0 0 -12.129745454545453 -2.206254545454545l-82.4226909090909 57.06472727272727a8.722618181818182 8.722618181818182 0 0 0 -2.206254545454545 12.129745454545453l124.05294545454545 179.17672727272725a8.722618181818182 8.722618181818182 0 0 0 12.129745454545453 2.206254545454545l82.4226909090909 -57.06472727272727a8.722618181818182 8.722618181818182 0 0 0 2.206254545454545 -12.129745454545453L278.5978181818181 110.81076363636362Z" stroke-width="1"></path><path fill="#0d9681" d="M370.65541818181816 291.88654545454546a21.69949090909091 21.69949090909091 0 0 0 4.142545454545455 13.195636363636362l-45.1072 31.255272727272725a21.820509090909088 21.820509090909088 0 0 0 -30.612945454545454 -6.083490909090909L204.03199999999998 192.9309090909091a21.592436363636363 21.592436363636363 0 0 0 9.364945454545454 -17.431272727272727 21.038545454545453 21.038545454545453 0 0 0 -3.853963636363636 -12.674327272727272l45.19563636363637 -31.297163636363635a21.648290909090907 21.648290909090907 0 0 0 17.47781818181818 9.406836363636362 21.4528 21.4528 0 0 0 12.799999999999999 -3.895854545454545l95.13425454545454 137.32770909090908a21.578472727272725 21.578472727272725 0 0 0 -9.495272727272727 17.515054545454543Z" stroke-width="1"></path><path fill="#8ce3d4" d="M178.53905454545452 138.51461818181818a9.313745454545453 9.313745454545453 0 0 0 -12.530036363636365 4.072727272727272l-48.63069090909091 95.46472727272727c-2.336581818181818 4.584727272727273 -0.512 10.193454545454545 4.072727272727272 12.530036363636365L328.9832727272727 356.29614545454547c4.584727272727273 2.336581818181818 10.193454545454545 0.512 12.530036363636365 -4.072727272727272l48.63069090909091 -95.46472727272727c2.336581818181818 -4.584727272727273 0.512 -10.193454545454545 -4.072727272727272 -12.530036363636365L178.53905454545452 138.51461818181818Z" stroke-width="1"></path><path fill="#17b198" d="M356.9291636363636 262.2277818181818a23.161018181818182 23.161018181818182 0 0 0 10.593745454545454 10.319127272727272l-26.60538181818182 52.2752a23.319272727272725 23.319272727272725 0 0 0 -21.815854545454545 -0.256 23.519418181818182 23.519418181818182 0 0 0 -10.07709090909091 10.053818181818182L150.0066909090909 253.5656727272727a23.063272727272725 23.063272727272725 0 0 0 -0.027927272727272728 -21.145599999999998 22.472145454545455 22.472145454545455 0 0 0 -10.049163636363636 -9.970036363636362l26.66589090909091 -52.35898181818182a23.133090909090907 23.133090909090907 0 0 0 21.20610909090909 0 22.93294545454545 22.93294545454545 0 0 0 10.072436363636363 -10.160872727272727l159.10632727272727 81.00305454545453a23.05861818181818 23.05861818181818 0 0 0 -0.051199999999999996 21.289890909090907Z" stroke-width="1"></path><path fill="#8ce3d4" d="M404.94545454545454 395.6363636363636a9.309090909090909 9.309090909090909 0 0 1 -9.309090909090909 9.309090909090909H116.36363636363636a9.309090909090909 9.309090909090909 0 0 1 -9.309090909090909 -9.309090909090909V246.6909090909091a9.309090909090909 9.309090909090909 0 0 1 9.309090909090909 -9.309090909090909h279.27272727272725a9.309090909090909 9.309090909090909 0 0 1 9.309090909090909 9.309090909090909v148.94545454545454Z" stroke-width="1"></path><path fill="#0d9681" d="M386.3272727272727 288.58181818181816v65.16363636363636c-18.01309090909091 0 -32.58181818181818 14.568727272727271 -32.58181818181818 32.58181818181818H158.25454545454545c0 -18.01309090909091 -14.568727272727271 -32.58181818181818 -32.58181818181818 -32.58181818181818V288.58181818181816c18.01309090909091 0 32.58181818181818 -14.568727272727271 32.58181818181818 -32.58181818181818h195.49090909090907c0 18.01309090909091 14.568727272727271 32.58181818181818 32.58181818181818 32.58181818181818Z" stroke-width="1"></path><path fill="#c2f8f0" d="M349.09090909090907 335.1272727272727a13.963636363636363 13.963636363636363 0 1 0 0 -27.927272727272726 13.963636363636363 13.963636363636363 0 0 0 0 27.927272727272726Z" stroke-width="1"></path><path fill="#0d9681" d="M162.9090909090909 335.1272727272727a13.963636363636363 13.963636363636363 0 1 0 0 -27.927272727272726 13.963636363636363 13.963636363636363 0 0 0 0 27.927272727272726Z" stroke-width="1"></path><path fill="#c2f8f0" d="M158.25454545454545 386.3272727272727c0 -18.01309090909091 -14.568727272727271 -32.58181818181818 -32.58181818181818 -32.58181818181818V288.58181818181816c18.01309090909091 0 32.58181818181818 -14.568727272727271 32.58181818181818 -32.58181818181818h164.75694545454544l18.618181818181817 -18.618181818181817H116.36363636363636a9.309090909090909 9.309090909090909 0 0 0 -9.309090909090909 9.309090909090909v148.94545454545454a9.309090909090909 9.309090909090909 0 0 0 9.309090909090909 9.309090909090909h57.7024l18.618181818181817 -18.618181818181817H158.25454545454545Z" stroke-width="1"></path><path fill="#17b198" d="M125.67272727272727 288.58181818181816v65.16363636363636c18.01309090909091 0 32.58181818181818 14.568727272727271 32.58181818181818 32.58181818181818h34.429672727272724l31.371636363636362 -31.371636363636362A46.35927272727273 46.35927272727273 0 0 1 209.45454545454544 321.16363636363633c0 -25.707054545454543 20.8384 -46.54545454545455 46.54545454545455 -46.54545454545455a46.368581818181816 46.368581818181816 0 0 1 33.791999999999994 14.60130909090909L323.0114909090909 256H158.25454545454545c0 18.01309090909091 -14.568727272727271 32.58181818181818 -32.58181818181818 32.58181818181818Zm51.199999999999996 32.58181818181818a13.963636363636363 13.963636363636363 0 1 1 -27.927272727272726 0 13.963636363636363 13.963636363636363 0 0 1 27.927272727272726 0Z" stroke-width="1"></path><path fill="#c2f8f0" d="M256 367.7090909090909c25.707054545454543 0 46.54545454545455 -20.8384 46.54545454545455 -46.54545454545455s-20.8384 -46.54545454545455 -46.54545454545455 -46.54545454545455 -46.54545454545455 20.8384 -46.54545454545455 46.54545454545455 20.8384 46.54545454545455 46.54545454545455 46.54545454545455Z" stroke-width="1"></path><path fill="#17b198" d="M255.93483636363635 297.0856727272727a2.885818181818182 2.885818181818182 0 0 1 2.9044363636363637 2.9044363636363637v0.7819636363636364a23.40305454545454 23.40305454545454 0 0 1 8.103563636363637 2.6856727272727268c1.0612363636363635 0.6144 2.0107636363636363 1.6756363636363636 2.0107636363636363 3.351272727272727a3.7236363636363636 3.7236363636363636 0 0 1 -3.7981090909090907 3.746909090909091 4.077381818181818 4.077381818181818 0 0 1 -1.9549090909090907 -0.5026909090909091 21.471418181818184 21.471418181818184 0 0 0 -4.6359272727272725 -1.8990545454545453v8.494545454545454c8.494545454545454 2.2900363636363634 12.125090909090908 5.757672727272728 12.125090909090908 12.013381818181818 0 6.260363636363636 -4.803490909090909 10.281890909090908 -11.845818181818181 11.063854545454545v2.9649454545454543a2.885818181818182 2.885818181818182 0 0 1 -2.9044363636363637 2.9044363636363637 2.885818181818182 2.885818181818182 0 0 1 -2.9044363636363637 -2.9044363636363637v-3.0208a27.950545454545452 27.950545454545452 0 0 1 -11.008000000000001 -3.9098181818181814 3.7794909090909092 3.7794909090909092 0 0 1 -1.8990545454545453 -3.351272727272727c0 -2.1783272727272727 1.6756363636363636 -3.802763636363636 3.853963636363636 -3.802763636363636 0.7261090909090909 0 1.5080727272727272 0.27927272727272723 2.1783272727272727 0.7261090909090909 2.345890909090909 1.5080727272727272 4.580072727272727 2.569309090909091 7.154036363636363 3.1278545454545457v-8.885527272727272c-8.047709090909091 -2.1783272727272727 -12.013381818181818 -5.250327272727272 -12.013381818181818 -11.901672727272727 0 -6.148654545454545 4.696436363636363 -10.286545454545454 11.73410909090909 -11.012654545454545v-0.6702545454545453a2.876509090909091 2.876509090909091 0 0 1 2.8997818181818182 -2.9044363636363637Zm-2.625163636363636 18.110836363636363v-7.545018181818182c-2.6810181818181813 0.3909818181818182 -3.8586181818181813 1.731490909090909 -3.8586181818181813 3.5188363636363635 0 1.731490909090909 0.7819636363636364 2.9044363636363637 3.8586181818181813 4.026181818181818Zm5.250327272727272 9.774545454545455v7.768436363636363c2.625163636363636 -0.3909818181818182 3.965672727272727 -1.6244363636363635 3.965672727272727 -3.6351999999999998 0.004654545454545455 -1.8385454545454545 -0.9448727272727273 -3.072 -3.965672727272727 -4.133236363636364Z" stroke-width="1"></path><path fill="#ffffff" d="M242.01774545454546 335.76494545454545a3.7794909090909092 3.7794909090909092 0 0 1 -1.8990545454545453 -3.351272727272727c0 -2.1783272727272727 1.6709818181818181 -3.793454545454545 3.8493090909090903 -3.793454545454545 0.7261090909090909 0 1.5080727272727272 0.27927272727272723 2.1783272727272727 0.7261090909090909 0.7633454545454545 0.4887272727272727 1.5173818181818182 0.8564363636363636 2.2714181818181816 1.2520727272727272l4.87330909090909 -4.87330909090909v-2.1271272727272725c-8.0384 -2.1783272727272727 -12.004072727272728 -5.245672727272727 -12.004072727272728 -11.892363636363637 0 -6.139345454545454 4.691781818181818 -10.272581818181816 11.7248 -10.998690909090909v-0.6702545454545453a2.885818181818182 2.885818181818182 0 0 1 2.9044363636363637 -2.9044363636363637 2.885818181818182 2.885818181818182 0 0 1 2.9044363636363637 2.9044363636363637v0.7819636363636364a23.57527272727273 23.57527272727273 0 0 1 8.094254545454545 2.676363636363636c1.0612363636363635 0.6144 2.0107636363636363 1.6756363636363636 2.0107636363636363 3.351272727272727 0 2.122472727272727 -1.6756363636363636 3.7422545454545455 -3.793454545454545 3.7422545454545455a4.077381818181818 4.077381818181818 0 0 1 -1.9549090909090907 -0.5026909090909091 21.373672727272723 21.373672727272723 0 0 0 -4.6359272727272725 -1.8990545454545453v8.485236363636362c1.0426181818181819 0.27927272727272723 2.006109090909091 0.5818181818181818 2.9044363636363637 0.8983272727272728l28.350836363636365 -28.350836363636365A46.38719999999999 46.38719999999999 0 0 0 256 274.6181818181818c-25.707054545454543 0 -46.54545454545455 20.8384 -46.54545454545455 46.54545454545455a46.35927272727273 46.35927272727273 0 0 0 14.60130909090909 33.791999999999994l18.75781818181818 -18.75781818181818c-0.2653090909090909 -0.14894545454545455 -0.5399272727272727 -0.27927272727272723 -0.7959272727272727 -0.43287272727272724Z" stroke-width="1"></path><path fill="#ffffff" d="M162.9090909090909 335.1272727272727a13.963636363636363 13.963636363636363 0 1 0 0 -27.927272727272726 13.963636363636363 13.963636363636363 0 0 0 0 27.927272727272726Z" stroke-width="1"></path><path fill="#ffffff" d="M253.29105454545453 307.712v7.503127272727273c-3.0766545454545455 -1.0891636363636363 -3.8493090909090903 -2.3086545454545453 -3.8493090909090903 -4.0401454545454545s1.1543272727272726 -3.081309090909091 3.8493090909090903 -3.462981818181818Z" stroke-width="1"></path></svg>