<svg xmlns="http://www.w3.org/2000/svg" fill="none" viewBox="0 0 512 512" height="512" width="512"><path fill="#32bea6" d="M256 512c141.38647272727272 0 256 -114.61352727272727 256 -256S397.38647272727275 0 256 0 0 114.61352727272727 0 256s114.61352727272727 256 256 256Z" stroke-width="1"></path><path fill="#f0f1f1" d="M400.29090909090905 311.8638545454545h-34.20625454545454a27.787636363636363 27.787636363636363 0 0 1 1.6244363636363635 9.309090909090909 27.787636363636363 27.787636363636363 0 0 1 -1.6244363636363635 9.309090909090909H400.29090909090905a4.654545454545454 4.654545454545454 0 0 0 4.654545454545454 -4.654545454545454v-9.309090909090909a4.654545454545454 4.654545454545454 0 0 0 -4.654545454545454 -4.654545454545454Z" stroke-width="1"></path><path fill="#ffffff" d="M349.09090909090907 294.86545454545455v52.610327272727275c10.840436363636364 -3.8399999999999994 18.618181818181817 -14.149818181818182 18.618181818181817 -26.302836363636363a27.92261818181818 27.92261818181818 0 0 0 -18.618181818181817 -26.30749090909091Z" stroke-width="1"></path><path fill="#facb1b" d="M107.05454545454545 200.15476363636364v204.79999999999998h242.03636363636363v-204.79999999999998" stroke-width="1"></path><path fill="#df2c2c" d="M293.60872727272726 144.30021818181817s-21.531927272727273 -37.236363636363635 -65.536 -37.236363636363635 -65.536 37.236363636363635 -65.536 37.236363636363635c-32.20945454545454 -13.963636363636363 -55.482181818181814 16.895999999999997 -55.482181818181814 37.236363636363635h242.03636363636363c0 -20.340363636363637 -23.272727272727273 -51.199999999999996 -55.482181818181814 -37.236363636363635Z" stroke-width="1"></path><path fill="#fbe158" d="M349.09090909090907 181.53658181818182H107.05454545454545v18.618181818181817h242.03636363636363v-18.618181818181817Z" stroke-width="1"></path><path fill="#fbe158" d="M107.05454545454545 200.15476363636364v129.64770909090907l129.64770909090907 -129.64770909090907H107.05454545454545Z" stroke-width="1"></path><path fill="#ffffff" d="M330.47272727272724 228.08203636363638H274.6181818181818v74.47272727272727h55.85454545454545v-74.47272727272727Z" stroke-width="1"></path><path fill="#f3b607" d="M349.09090909090907 330.4820363636363H107.05454545454545v74.47272727272727h242.03636363636363v-74.47272727272727Z" stroke-width="1"></path><path fill="#ffffff" d="M386.3272727272727 251.35476363636363c-3.4071272727272723 0 -6.56290909090909 -0.9821090909090908 -9.309090909090909 -2.5832727272727274v63.09236363636363h18.618181818181817V248.77149090909091a18.455272727272725 18.455272727272725 0 0 1 -9.309090909090909 2.5832727272727274Z" stroke-width="1"></path><path fill="#df2c2c" d="M386.3272727272727 251.35476363636363a18.618181818181817 18.618181818181817 0 1 0 0 -37.236363636363635 18.618181818181817 18.618181818181817 0 0 0 0 37.236363636363635Z" stroke-width="1"></path><path fill="#ffffff" d="M181.52727272727273 228.08203636363638H125.67272727272727v74.47272727272727h55.85454545454545v-74.47272727272727Z" stroke-width="1"></path><path fill="#ffffff" d="M256 228.08203636363638H200.14545454545453v74.47272727272727h55.85454545454545v-74.47272727272727Z" stroke-width="1"></path><path fill="#a97a45" d="M267.5898181818182 363.0638545454545H188.55563636363635c9.402181818181818 -11.357090909090909 23.598545454545455 -18.618181818181817 39.51709090909091 -18.618181818181817s30.114909090909087 7.261090909090909 39.51709090909091 18.618181818181817Z" stroke-width="1"></path><path fill="#fcf6c2" d="M299.40363636363634 354.3365818181818A13.870545454545454 13.870545454545454 0 0 0 288.58181818181816 349.10021818181815a13.963636363636363 13.963636363636363 0 0 0 -13.963636363636363 13.963636363636363h37.236363636363635c0 -6.2370909090909095 -6.144 -10.994036363636363 -12.45090909090909 -8.727272727272727Z" stroke-width="1"></path><path fill="#fcf6c2" d="M167.56363636363636 349.10021818181815c-4.389236363636363 0 -8.261818181818182 2.066618181818182 -10.821818181818182 5.236363636363636 -6.278981818181817 -2.257454545454545 -12.45090909090909 2.4669090909090907 -12.45090909090909 8.727272727272727h37.236363636363635a13.963636363636363 13.963636363636363 0 0 0 -13.963636363636363 -13.963636363636363Z" stroke-width="1"></path><path fill="#fbe158" d="M330.47272727272724 363.0638545454545v0.18618181818181817c0 10.193454545454545 -29.481890909090907 30.068363636363635 -103.17730909090909 30.068363636363635C153.6 393.31839999999994 125.67272727272727 373.4434909090909 125.67272727272727 363.25003636363635v-0.18618181818181817h204.79999999999998Z" stroke-width="1"></path><path fill="#fa5655" d="M228.07272727272726 107.06385454545453c-44.00407272727273 0 -65.536 37.236363636363635 -65.536 37.236363636363635 -32.20945454545454 -13.963636363636363 -55.482181818181814 16.895999999999997 -55.482181818181814 37.236363636363635h148.2658909090909l37.888 -37.888c-2.983563636363636 -4.7662545454545455 -24.417745454545454 -36.58472727272727 -65.13570909090909 -36.58472727272727Z" stroke-width="1"></path><path fill="#fbe158" d="m227.5141818181818 119.76145454545454 6.46050909090909 19.88421818181818h20.90821818181818l-16.91461818181818 12.376436363636362 6.46050909090909 19.930763636363636 -16.91461818181818 -12.26472727272727 -16.91461818181818 12.29730909090909 6.46050909090909 -19.968L200.14545454545453 139.6456727272727h20.90821818181818l6.46050909090909 -19.88421818181818Z" stroke-width="1"></path><path fill="#df2c2c" d="M285.23519999999996 258.3691636363636a1.3079272727272728 1.3079272727272728 0 0 1 -1.3079272727272728 -1.3079272727272728v-13.06530909090909c0 -0.7214545454545455 0.5864727272727273 -1.3079272727272728 1.3079272727272728 -1.3079272727272728h2.6112c0.7214545454545455 0 1.3079272727272728 0.5864727272727273 1.3079272727272728 1.3079272727272728v1.3079272727272728s2.6112 -2.6112 7.838254545454545 -2.6112c5.227054545454545 0 6.534981818181818 2.6112 11.757381818181816 2.6112 5.227054545454545 0 9.146181818181818 -2.6112 9.146181818181818 -2.6112l3.267490909090909 3.914472727272727s-10.226036363636364 26.4704 -11.054545454545455 36.68712727272727a1.3032727272727274 1.3032727272727274 0 0 1 -1.298618181818182 1.2008727272727273l-11.789963636363636 0a1.3079272727272728 1.3079272727272728 0 0 1 -1.3079272727272728 -1.373090909090909c0.22807272727272726 -4.407854545454545 2.048 -18.55301818181818 15.653236363636363 -29.97992727272727 -1.3079272727272728 1.3079272727272728 -3.267490909090909 2.6112 -6.534981818181818 2.6112s-7.186618181818182 -2.6112 -9.797818181818181 -2.6112c-2.3552 0 -5.245672727272727 1.0612363636363635 -5.7902545454545455 4.1472a1.3032727272727274 1.3032727272727274 0 0 1 -1.2846545454545455 1.0798545454545454l-2.7229090909090905 0Z" stroke-width="1"></path><path fill="#df2c2c" d="M210.76247272727272 258.3691636363636a1.3079272727272728 1.3079272727272728 0 0 1 -1.3079272727272728 -1.3079272727272728v-13.06530909090909c0 -0.7214545454545455 0.5864727272727273 -1.3079272727272728 1.3079272727272728 -1.3079272727272728h2.6112c0.7214545454545455 0 1.3079272727272728 0.5864727272727273 1.3079272727272728 1.3079272727272728v1.3079272727272728s2.6112 -2.6112 7.838254545454545 -2.6112c5.227054545454545 0 6.534981818181818 2.6112 11.757381818181816 2.6112a18.106181818181817 18.106181818181817 0 0 0 9.146181818181818 -2.6112l3.267490909090909 3.914472727272727s-10.226036363636364 26.4704 -11.054545454545455 36.68712727272727a1.3032727272727274 1.3032727272727274 0 0 1 -1.298618181818182 1.2008727272727273l-11.789963636363636 0a1.3079272727272728 1.3079272727272728 0 0 1 -1.3079272727272728 -1.373090909090909c0.22807272727272726 -4.407854545454545 2.048 -18.55301818181818 15.653236363636363 -29.97992727272727 -1.3079272727272728 1.3079272727272728 -3.267490909090909 2.6112 -6.534981818181818 2.6112s-7.186618181818182 -2.6112 -9.797818181818181 -2.6112c-2.3552 0 -5.245672727272727 1.0612363636363635 -5.7902545454545455 4.1472a1.3032727272727274 1.3032727272727274 0 0 1 -1.2846545454545455 1.0798545454545454l-2.7229090909090905 0Z" stroke-width="1"></path><path fill="#df2c2c" d="M136.28974545454545 258.3691636363636a1.3079272727272728 1.3079272727272728 0 0 1 -1.3079272727272728 -1.3079272727272728v-13.06530909090909c0 -0.7214545454545455 0.5864727272727273 -1.3079272727272728 1.3079272727272728 -1.3079272727272728h2.6112c0.7214545454545455 0 1.3079272727272728 0.5864727272727273 1.3079272727272728 1.3079272727272728v1.3079272727272728s2.6112 -2.6112 7.838254545454545 -2.6112c5.227054545454545 0 6.534981818181818 2.6112 11.757381818181816 2.6112a18.106181818181817 18.106181818181817 0 0 0 9.146181818181818 -2.6112l3.267490909090909 3.914472727272727s-10.226036363636364 26.4704 -11.054545454545455 36.68712727272727a1.3032727272727274 1.3032727272727274 0 0 1 -1.298618181818182 1.2008727272727273l-11.789963636363636 0a1.3079272727272728 1.3079272727272728 0 0 1 -1.3079272727272728 -1.373090909090909c0.22807272727272726 -4.407854545454545 2.048 -18.55301818181818 15.653236363636363 -29.97992727272727 -1.3079272727272728 1.3079272727272728 -3.267490909090909 2.6112 -6.534981818181818 2.6112s-7.186618181818182 -2.6112 -9.797818181818181 -2.6112c-2.3552 0 -5.245672727272727 1.0612363636363635 -5.7902545454545455 4.1472a1.3032727272727274 1.3032727272727274 0 0 1 -1.2846545454545455 1.0798545454545454l-2.7229090909090905 0Z" stroke-width="1"></path><path fill="#fbec9a" d="M107.05454545454545 181.53658181818182v18.618181818181817h129.64770909090907l18.618181818181817 -18.618181818181817H107.05454545454545Z" stroke-width="1"></path></svg>