<svg xmlns="http://www.w3.org/2000/svg" fill="none" viewBox="0 0 512 512" height="512" width="512"><path fill="#32bea6" d="M256 512c141.38647272727272 0 256 -114.61352727272727 256 -256S397.38647272727275 0 256 0 0 114.61352727272727 0 256s114.61352727272727 256 256 256Z" stroke-width="1"></path><path fill="#facb1b" d="M284.80232727272727 168.58763636363636c-22.653672727272728 0 -41.01585454545454 -4.594036363636364 -41.01585454545454 -10.258618181818182v54.69090909090909c0 5.641309090909091 18.35752727272727 10.253963636363634 41.01585454545454 10.253963636363634 22.658327272727274 0 41.01585454545454 -4.608 41.01585454545454 -10.253963636363634v-54.69090909090909c0 5.6599272727272725 -18.366836363636363 10.253963636363634 -41.01585454545454 10.253963636363634Z" stroke-width="1"></path><path fill="#fbec9a" d="M284.80232727272727 168.58298181818182c22.653672727272728 0 41.01585454545454 -4.589381818181818 41.01585454545454 -10.253963636363634 0 -5.664581818181818 -18.362181818181817 -10.253963636363634 -41.01585454545454 -10.253963636363634 -22.653672727272728 0 -41.01585454545454 4.589381818181818 -41.01585454545454 10.253963636363634 0 5.664581818181818 18.362181818181817 10.253963636363634 41.01585454545454 10.253963636363634Z" stroke-width="1"></path><path fill="#f3b607" d="M243.78181818181818 180.38225454545451c9.299781818181819 5.213090909090909 29.114181818181816 6.786327272727272 41.01585454545454 6.786327272727272 11.901672727272727 0 31.716072727272724 -1.5685818181818183 41.01585454545454 -6.786327272727272V173.70763636363637c0 2.4948363636363635 -13.954327272727273 8.331636363636363 -41.01585454545454 8.331636363636363 -27.06152727272727 0 -41.01585454545454 -5.836799999999999 -41.01585454545454 -8.331636363636363v6.674618181818182Z" stroke-width="1"></path><path fill="#f3b607" d="M243.78181818181818 200.89483636363636c9.299781818181819 5.213090909090909 29.114181818181816 6.786327272727272 41.01585454545454 6.786327272727272 11.901672727272727 0 31.716072727272724 -1.5685818181818183 41.01585454545454 -6.786327272727272v-6.674618181818182c0 2.4948363636363635 -13.954327272727273 8.331636363636363 -41.01585454545454 8.331636363636363 -27.06152727272727 0 -41.01585454545454 -5.836799999999999 -41.01585454545454 -8.331636363636363v6.674618181818182Z" stroke-width="1"></path><path fill="#fbe158" d="M243.78181818181818 214.8072727272727c0 1.801309090909091 7.335563636363636 5.352727272727272 21.6064 7.172654545454545l14.312727272727273 -14.312727272727273c-11.869090909090907 -0.3909818181818182 -27.848145454545453 -2.1690181818181817 -35.919127272727266 -6.693236363636363v13.83330909090909Z" stroke-width="1"></path><path fill="#fbe158" d="M243.78181818181818 180.46138181818182v13.83330909090909c0 2.490181818181818 13.935709090909091 8.322327272727273 40.96 8.331636363636363l16.193163636363636 -16.193163636363636a169.32770909090908 169.32770909090908 0 0 1 -16.132654545454546 0.809890909090909c-11.906327272727271 0.004654545454545455 -31.720727272727274 -1.5685818181818183 -41.020509090909094 -6.781672727272727Z" stroke-width="1"></path><path fill="#fbe158" d="M284.80232727272727 168.66210909090907c-22.653672727272728 0 -41.01585454545454 -4.589381818181818 -41.01585454545454 -10.253963636363634v15.383272727272727c0 2.4948363636363635 13.954327272727273 8.331636363636363 41.01585454545454 8.331636363636363 8.680727272727273 0 15.997672727272725 -0.6050909090909091 21.955490909090905 -1.5034181818181818L325.8181818181818 161.54996363636363v-3.1464727272727275c0 5.664581818181818 -18.362181818181817 10.258618181818182 -41.01585454545454 10.258618181818182Z" stroke-width="1"></path><path fill="#facb1b" d="M243.78181818181818 173.78676363636364v6.674618181818182c9.299781818181819 5.213090909090909 29.114181818181816 6.786327272727272 41.01585454545454 6.786327272727272 4.561454545454545 0 10.286545454545454 -0.23272727272727273 16.132654545454546 -0.809890909090909l5.818181818181818 -5.818181818181818c-5.9578181818181815 0.8983272727272728 -13.27010909090909 1.5034181818181818 -21.955490909090905 1.5034181818181818 -27.056872727272726 -0.004654545454545455 -41.011199999999995 -5.841454545454544 -41.011199999999995 -8.33629090909091Z" stroke-width="1"></path><path fill="#facb1b" d="M243.78181818181818 194.29469090909092v6.674618181818182c8.070981818181817 4.524218181818181 24.05469090909091 6.302254545454546 35.919127272727266 6.693236363636363l5.040872727272727 -5.040872727272727c-27.024290909090908 0 -40.96 -5.832145454545453 -40.96 -8.326981818181817Z" stroke-width="1"></path><path fill="#facb1b" d="M202.76130909090907 127.56247272727272c-22.653672727272728 0 -41.01585454545454 -4.589381818181818 -41.01585454545454 -10.253963636363634v92.29032727272727c0 5.641309090909091 18.35752727272727 10.253963636363634 41.01585454545454 10.253963636363634 22.658327272727274 0 41.01585454545454 -4.608 41.01585454545454 -10.253963636363634V117.30850909090908c0.004654545454545455 5.664581818181818 -18.362181818181817 10.253963636363634 -41.01585454545454 10.253963636363634Z" stroke-width="1"></path><path fill="#fbec9a" d="M202.76130909090907 127.56247272727272c22.653672727272728 0 41.01585454545454 -4.589381818181818 41.01585454545454 -10.253963636363634 0 -5.664581818181818 -18.362181818181817 -10.253963636363634 -41.01585454545454 -10.253963636363634 -22.653672727272728 0 -41.01585454545454 4.589381818181818 -41.01585454545454 10.253963636363634 0 5.664581818181818 18.362181818181817 10.253963636363634 41.01585454545454 10.253963636363634Z" stroke-width="1"></path><path fill="#f3b607" d="M161.74545454545455 139.3664c9.299781818181819 5.213090909090909 29.114181818181816 6.786327272727272 41.01585454545454 6.786327272727272 11.901672727272727 0 31.716072727272724 -1.5685818181818183 41.01585454545454 -6.786327272727272v-6.674618181818182c0 2.4948363636363635 -13.954327272727273 8.331636363636363 -41.01585454545454 8.331636363636363 -27.06152727272727 0 -41.01585454545454 -5.836799999999999 -41.01585454545454 -8.331636363636363v6.674618181818182Z" stroke-width="1"></path><path fill="#f3b607" d="M161.74545454545455 159.87432727272727c9.299781818181819 5.213090909090909 29.114181818181816 6.786327272727272 41.01585454545454 6.786327272727272 11.901672727272727 0 31.716072727272724 -1.5685818181818183 41.01585454545454 -6.786327272727272v-6.674618181818182c0 2.4948363636363635 -13.954327272727273 8.331636363636363 -41.01585454545454 8.331636363636363 -27.06152727272727 0 -41.01585454545454 -5.836799999999999 -41.01585454545454 -8.331636363636363v6.674618181818182Z" stroke-width="1"></path><path fill="#f3b607" d="M161.74545454545455 180.38225454545451c9.299781818181819 5.213090909090909 29.114181818181816 6.786327272727272 41.01585454545454 6.786327272727272 11.901672727272727 0 31.716072727272724 -1.5685818181818183 41.01585454545454 -6.786327272727272V173.70763636363637c0 2.4948363636363635 -13.954327272727273 8.331636363636363 -41.01585454545454 8.331636363636363 -27.06152727272727 0 -41.01585454545454 -5.836799999999999 -41.01585454545454 -8.331636363636363v6.674618181818182Z" stroke-width="1"></path><path fill="#f3b607" d="M161.74545454545455 197.68785454545454c9.299781818181819 5.213090909090909 29.114181818181816 6.786327272727272 41.01585454545454 6.786327272727272 11.901672727272727 0 31.716072727272724 -1.5685818181818183 41.01585454545454 -6.786327272727272v-6.674618181818182c0 2.4948363636363635 -13.954327272727273 8.331636363636363 -41.01585454545454 8.331636363636363 -27.06152727272727 0 -41.01585454545454 -5.836799999999999 -41.01585454545454 -8.331636363636363v6.674618181818182Z" stroke-width="1"></path><path fill="#fbe158" d="M161.74545454545455 190.99461818181817c0 1.0426181818181819 2.4669090909090907 2.6623999999999994 7.2750545454545446 4.203054545454545l9.844363636363637 -9.844363636363637c-6.7072 -1.0612363636363635 -12.962909090909092 -2.6577454545454544 -17.11941818181818 -4.989672727272727v10.630981818181818Z" stroke-width="1"></path><path fill="#fbe158" d="M161.74545454545455 173.6890181818182c0 1.801309090909091 7.335563636363636 5.352727272727272 21.6064 7.172654545454545l14.312727272727273 -14.312727272727273c-11.869090909090907 -0.3909818181818182 -27.848145454545453 -2.1690181818181817 -35.919127272727266 -6.693236363636363v13.83330909090909Z" stroke-width="1"></path><path fill="#fbe158" d="M161.74545454545455 139.3477818181818v13.83330909090909c0 2.490181818181818 13.935709090909091 8.322327272727273 40.96 8.331636363636363l16.193163636363636 -16.193163636363636a169.32770909090908 169.32770909090908 0 0 1 -16.132654545454546 0.809890909090909c-11.906327272727271 0 -31.720727272727274 -1.5685818181818183 -41.020509090909094 -6.781672727272727Z" stroke-width="1"></path><path fill="#fbe158" d="M202.76130909090907 127.54385454545455c-22.653672727272728 0 -41.01585454545454 -4.589381818181818 -41.01585454545454 -10.253963636363634v15.383272727272727c0 2.4948363636363635 13.954327272727273 8.331636363636363 41.01585454545454 8.331636363636363 8.680727272727273 0 15.997672727272725 -0.6050909090909091 21.955490909090905 -1.5034181818181818l19.065018181818182 -19.065018181818182V117.29454545454544c0 5.664581818181818 -18.362181818181817 10.253963636363634 -41.020509090909094 10.253963636363634Z" stroke-width="1"></path><path fill="#fbe158" d="M161.74545454545455 197.95781818181817v4.808145454545454l3.2861090909090906 -3.2861090909090906a27.745745454545453 27.745745454545453 0 0 1 -3.2861090909090906 -1.5173818181818182Z" stroke-width="1"></path><path fill="#facb1b" d="M161.74545454545455 132.67316363636363v6.674618181818182c9.299781818181819 5.213090909090909 29.114181818181816 6.786327272727272 41.01585454545454 6.786327272727272 4.561454545454545 0 10.286545454545454 -0.23272727272727273 16.132654545454546 -0.809890909090909l5.818181818181818 -5.818181818181818c-5.9578181818181815 0.8983272727272728 -13.27010909090909 1.5034181818181818 -21.955490909090905 1.5034181818181818 -27.056872727272726 -0.004654545454545455 -41.011199999999995 -5.84610909090909 -41.011199999999995 -8.33629090909091Z" stroke-width="1"></path><path fill="#facb1b" d="M161.74545454545455 153.1810909090909v6.674618181818182c8.070981818181817 4.524218181818181 24.05469090909091 6.302254545454546 35.919127272727266 6.693236363636363L202.70545454545453 161.5127272727273c-27.024290909090908 -0.00930909090909091 -40.96 -5.841454545454544 -40.96 -8.331636363636363Z" stroke-width="1"></path><path fill="#facb1b" d="M161.74545454545455 173.6890181818182v6.674618181818182c4.156509090909091 2.327272727272727 10.412218181818181 3.9284363636363633 17.11941818181818 4.989672727272727l4.4869818181818175 -4.4869818181818175c-14.270836363636363 -1.8292363636363635 -21.6064 -5.3713454545454535 -21.6064 -7.177309090909091Z" stroke-width="1"></path><path fill="#facb1b" d="M161.74545454545455 191.28785454545454v6.674618181818182c0.9774545454545454 0.5492363636363636 2.0945454545454547 1.0472727272727274 3.2861090909090906 1.5173818181818182l3.9889454545454543 -3.9889454545454543c-4.808145454545454 -1.536 -7.2750545454545446 -3.165090909090909 -7.2750545454545446 -4.203054545454545Z" stroke-width="1"></path><path fill="#c2fcf5" d="M141.23752727272728 194.9602909090909c33.69890909090909 14.638545454545454 53.01992727272727 14.638545454545454 71.7824 14.638545454545454 18.86021818181818 0 36.724363636363634 0 71.7824 16.663272727272727v59.50836363636363c-33.69890909090909 -14.638545454545454 -53.01992727272727 -14.638545454545454 -71.7824 -14.638545454545454 -18.86021818181818 0 -36.724363636363634 0 -71.7824 -16.663272727272727V194.9602909090909Zm-10.253963636363634 -16.123345454545454v82.03636363636363c82.03636363636363 41.01585454545454 82.03636363636363 0 164.07272727272726 41.01585454545454V219.8528c-82.03636363636363 -41.01585454545454 -82.03636363636363 0 -164.07272727272726 -41.01585454545454Z" stroke-width="1"></path><path fill="#12b2a0" d="M284.80232727272727 285.7658181818182V226.25745454545452c-35.05803636363636 -16.663272727272727 -52.92218181818181 -16.663272727272727 -71.7824 -16.663272727272727 -18.762472727272726 0 -38.08349090909091 0 -71.7824 -14.638545454545454V254.464c35.05803636363636 16.65861818181818 52.92218181818181 16.663272727272727 71.7824 16.663272727272727 18.762472727272726 0 38.078836363636356 0 71.7824 14.638545454545454Z" stroke-width="1"></path><path fill="#47c4b7" d="M240.4165818181818 211.27912727272727c-10.118981818181817 -1.6570181818181817 -18.660072727272727 -1.680290909090909 -27.396654545454545 -1.680290909090909 -18.762472727272726 0 -38.08349090909091 0 -71.7824 -14.638545454545454V254.464c17.29629090909091 8.219927272727272 30.394181818181817 12.371781818181818 41.50923636363636 14.484945454545453l57.66981818181818 -57.66981818181818Z" stroke-width="1"></path><path fill="#c2fcf5" d="M213.01992727272724 260.87330909090906a20.50792727272727 20.50792727272727 0 1 0 0 -41.01585454545454 20.50792727272727 20.50792727272727 0 0 0 0 41.01585454545454Z" stroke-width="1"></path><path fill="#c2fcf5" d="M213.01992727272724 219.8528a20.50792727272727 20.50792727272727 0 0 0 -14.713018181818182 34.778763636363635l28.983854545454545 -28.983854545454545a20.45207272727273 20.45207272727273 0 0 0 -14.270836363636363 -5.7949090909090915Z" stroke-width="1"></path><path fill="#ffffff" d="M130.9835636363636 180.52654545454544v80.34676363636363c17.636072727272726 8.81570909090909 31.46472727272727 13.828654545454546 43.14763636363636 16.695854545454544l8.615563636363635 -8.615563636363635c-11.1104 -2.1085090909090907 -24.21294545454545 -6.265018181818182 -41.50923636363636 -14.484945454545453V194.9602909090909c33.69890909090909 14.638545454545454 53.01992727272727 14.638545454545454 71.7824 14.638545454545454 8.736581818181818 0 17.277672727272726 0.02327272727272727 27.396654545454545 1.680290909090909l8.750545454545454 -8.750545454545454c-40.285090909090904 -8.983272727272727 -55.03534545454545 7.5636363636363635 -117.0432 -23.142400000000002l-1.1403636363636362 1.1403636363636362Z" stroke-width="1"></path><path fill="#c2fcf5" d="M117.30850909090908 218.88930909090908c33.69890909090909 14.638545454545454 53.01992727272727 14.638545454545454 71.7824 14.638545454545454 18.86021818181818 0 36.724363636363634 0 71.7824 16.663272727272727v59.50836363636363c-33.69890909090909 -14.638545454545454 -53.01992727272727 -14.638545454545454 -71.7824 -14.638545454545454 -18.86021818181818 0 -36.724363636363634 0 -71.7824 -16.663272727272727V218.88930909090908ZM107.05454545454545 202.76596363636364v82.03636363636363C189.0909090909091 325.8181818181818 189.0909090909091 284.80232727272727 271.1272727272727 325.8181818181818V243.78181818181818c-82.03636363636363 -41.01585454545454 -82.03636363636363 0 -164.07272727272726 -41.01585454545454Z" stroke-width="1"></path><path fill="#12b2a0" d="M260.87330909090906 309.69483636363634V250.18181818181816c-35.05803636363636 -16.663272727272727 -52.92218181818181 -16.663272727272727 -71.7824 -16.663272727272727 -18.762472727272726 0 -38.08349090909091 0 -71.7824 -14.638545454545454V278.38836363636364c35.05803636363636 16.65861818181818 52.92218181818181 16.663272727272727 71.7824 16.663272727272727 18.762472727272726 0 38.08349090909091 -0.004654545454545455 71.7824 14.638545454545454Z" stroke-width="1"></path><path fill="#47c4b7" d="M216.48756363636363 235.20814545454544c-10.118981818181817 -1.6570181818181817 -18.660072727272727 -1.680290909090909 -27.396654545454545 -1.680290909090909 -18.762472727272726 0 -38.08349090909091 0 -71.7824 -14.638545454545454v59.50836363636363c17.29629090909091 8.219927272727272 30.394181818181817 12.371781818181818 41.50923636363636 14.484945454545453l57.66981818181818 -57.67447272727272Z" stroke-width="1"></path><path fill="#c2fcf5" d="M189.0909090909091 284.7976727272727a20.50792727272727 20.50792727272727 0 1 0 0 -41.01585454545454 20.50792727272727 20.50792727272727 0 0 0 0 41.01585454545454Z" stroke-width="1"></path><path fill="#c2fcf5" d="M189.0909090909091 243.78181818181818a20.50792727272727 20.50792727272727 0 0 0 -14.713018181818182 34.778763636363635l28.983854545454545 -28.983854545454545a20.442763636363637 20.442763636363637 0 0 0 -14.270836363636363 -5.7949090909090915Z" stroke-width="1"></path><path fill="#ffffff" d="M107.05454545454545 204.45090909090908v80.34676363636363c17.636072727272726 8.81570909090909 31.46472727272727 13.828654545454546 43.14763636363636 16.695854545454544l8.615563636363635 -8.610909090909091c-11.1104 -2.113163636363636 -24.21294545454545 -6.269672727272727 -41.50923636363636 -14.4896V218.88930909090908c33.69890909090909 14.638545454545454 53.01992727272727 14.638545454545454 71.7824 14.638545454545454 8.736581818181818 0 17.277672727272726 0.02327272727272727 27.396654545454545 1.680290909090909l8.750545454545454 -8.750545454545454c-40.285090909090904 -8.983272727272727 -55.03534545454545 7.5636363636363635 -117.0432 -23.142400000000002l-1.1403636363636362 1.1357090909090908Z" stroke-width="1"></path><path fill="#f7b4b4" d="M351.4181818181818 258.3272727272727C351.4181818181818 231.59621818181816 329.6069818181818 209.45454545454544 302.5454545454545 209.45454545454544c-26.88930909090909 0 -48.87272727272727 21.87170909090909 -48.87272727272727 48.87272727272727 0 16.57483636363636 8.299054545454545 31.21803636363636 20.945454545454545 40.05701818181818V311.8545454545454h55.85454545454545v-13.470254545454546c12.6464 -8.838981818181818 20.945454545454545 -23.482181818181818 20.945454545454545 -40.05701818181818Z" stroke-width="1"></path><path fill="#fbc8c8" d="M253.67272727272726 258.3272727272727c0 16.57483636363636 8.299054545454545 31.21803636363636 20.945454545454545 40.05701818181818V311.8545454545454h27.927272727272726V209.45454545454544c-26.88930909090909 0 -48.87272727272727 21.87170909090909 -48.87272727272727 48.87272727272727Z" stroke-width="1"></path><path fill="#3e3e3f" d="M404.94545454545454 404.94545454545454H200.14545454545453l5.115345454545454 -60.42996363636364A18.618181818181817 18.618181818181817 0 0 1 218.76363636363635 326.6141090909091L274.6181818181818 311.8545454545454h55.85454545454545l55.85454545454545 14.759563636363636a18.618181818181817 18.618181818181817 0 0 1 13.502836363636362 17.901381818181818L404.94545454545454 404.94545454545454Z" stroke-width="1"></path><path fill="#ffffff" d="M274.6181818181818 311.8545454545454h55.85454545454545l-27.927272727272726 93.0909090909091 -27.927272727272726 -93.0909090909091Z" stroke-width="1"></path><path fill="#df2c2c" d="m302.5454545454545 311.8545454545454 -13.963636363636363 46.54545454545455 13.963636363636363 46.54545454545455 13.963636363636363 -46.54545454545455 -13.963636363636363 -46.54545454545455Z" stroke-width="1"></path><path fill="#692e19" d="M351.2552727272727 255.55781818181816a144.8634181818182 144.8634181818182 0 0 1 -28.346181818181815 2.769454545454545c-25.330036363636363 0 -48.54690909090909 -6.274327272727273 -66.30399999999999 -16.70050909090909C263.4472727272727 222.89221818181818 281.45105454545455 209.45454545454544 302.5454545454545 209.45454545454544c25.981672727272727 0 47.327418181818175 20.44741818181818 48.70981818181818 46.103272727272724Z" stroke-width="1"></path><path fill="#fa5655" d="m288.58181818181816 358.4 13.963636363636363 46.54545454545455V311.8545454545454l-13.963636363636363 46.54545454545455Z" stroke-width="1"></path><path fill="#84462d" d="M302.5454545454545 209.45454545454544c-21.0944 0 -39.09818181818182 13.437672727272727 -45.94036363636363 32.17687272727273 12.865163636363635 7.554327272727273 28.616145454545453 12.883781818181816 45.94036363636363 15.271563636363636V209.45454545454544Z" stroke-width="1"></path></svg>