<svg xmlns="http://www.w3.org/2000/svg" fill="none" viewBox="0 0 512 512" height="512" width="512"><path fill="#32bea6" d="M256 512c141.38647272727272 0 256 -114.61352727272727 256 -256S397.38647272727275 0 256 0 0 114.61352727272727 0 256s114.61352727272727 256 256 256Z" stroke-width="1"></path><path fill="#84462d" d="M402.29236363636363 319.9162181818182a6.9818181818181815 6.9818181818181815 0 0 0 -6.004363636363636 -1.3032727272727274l-63.35301818181818 15.192436363636363a129.24741818181818 129.24741818181818 0 0 0 7.498472727272727 -3.8818909090909086L288.58181818181816 344.44567272727267l14.336 -17.919999999999998c2.234181818181818 -2.746181818181818 1.3032727272727274 -6.8421818181818175 -1.8152727272727271 -8.424727272727273l-0.09309090909090909 -0.04654545454545454c-1.9083636363636363 -0.9309090909090909 -4.189090909090909 -0.6981818181818181 -5.864727272727272 0.6050909090909091L256 349.10021818181815c-7.759127272727272 1.5918545454545454 5.985745454545454 -1.1636363636363636 -93.0909090909091 18.618181818181817l25.832727272727272 -29.556363636363635c-6.46050909090909 -2.4203636363636365 -18.25512727272727 -8.024436363636363 -28.39272727272727 -15.546181818181816L107.05454545454545 367.7184v37.236363636363635h55.85454545454545l83.78181818181818 -23.272727272727273 84.992 4.468363636363636c2.0945454545454547 0.09309090909090909 4.049454545454545 -1.024 4.980363636363636 -2.932363636363636 0.7447272727272727 -1.442909090909091 0.7447272727272727 -3.211636363636363 0.04654545454545454 -4.701090909090909a5.399272727272726 5.399272727272726 0 0 0 -3.7236363636363636 -2.839272727272727L293.23636363636365 367.7184l106.91490909090908 -35.65381818181818a7.019054545454545 7.019054545454545 0 0 0 2.141090909090909 -12.148363636363635Z" stroke-width="1"></path><path fill="#f99134" d="M358.4 251.35476363636363c0 7.8661818181818175 -18.618181818181817 41.89090909090909 -102.39999999999999 41.89090909090909s-102.39999999999999 -35.51418181818182 -102.39999999999999 -41.89090909090909c0 -8.192 18.571636363636365 -15.359999999999998 46.6850909090909 -19.54909090909091 -0.09774545454545455 -1.3963636363636363 -0.09774545454545455 -2.7927272727272725 -0.09774545454545455 -4.235636363636363 43.38036363636363 -6.423272727272726 86.80727272727272 -5.352727272727272 130.18763636363636 3.258181818181818 -0.09309090909090909 1.536 -0.18618181818181817 2.9789090909090907 -0.32581818181818184 4.421818181818181 17.598836363636362 4.235636363636363 28.350836363636365 9.862981818181819 28.350836363636365 16.10472727272727Z" stroke-width="1"></path><path fill="#ffffff" d="M356.4450909090909 246.79330909090908c-1.1776 24.39912727272727 -20.400872727272727 33.34050909090909 -34.350545454545454 27.973818181818178 -8.052363636363635 -3.165090909090909 -20.014545454545452 -15.406545454545453 -13.591272727272726 -31.837090909090907s27.18254545454545 -31.511272727272722 36.864 -27.694545454545455c7.2797090909090905 2.8625454545454545 11.836509090909091 17.52901818181818 11.07781818181818 31.55781818181818Z" stroke-width="1"></path><path fill="#ffffff" d="M189.8635636363636 282.35869090909085c-0.37236363636363634 0.04654545454545454 -0.7447272727272727 0.04654545454545454 -1.117090909090909 0.04654545454545454 -15.080727272727273 -6.050909090909091 -24.203636363636363 -13.637818181818181 -29.32363636363636 -19.921454545454544 -3.5095272727272726 -10.305163636363636 -1.0007272727272727 -23.88712727272727 2.9789090909090907 -34.07127272727273 4.933818181818181 -12.474181818181819 13.079272727272727 -22.481454545454543 20.526545454545456 -23.179636363636366 12.520727272727273 -1.117090909090909 31.604363636363637 23.412363636363636 33.512727272727275 44.68363636363636 1.9083636363636363 21.317818181818183 -16.10472727272727 31.511272727272722 -26.577454545454543 32.442181818181815Z" stroke-width="1"></path><path fill="#cfd3d4" d="M182.92829090909092 205.23287272727273c-0.40029090909090903 0.03723636363636364 -0.8052363636363635 0.20479999999999998 -1.2101818181818182 0.29323636363636363l8.043054545454545 76.83258181818182 0.10239999999999999 -0.004654545454545455c10.472727272727273 -0.9309090909090909 28.485818181818182 -11.124363636363636 26.577454545454543 -32.442181818181815 -1.9083636363636363 -21.26661818181818 -20.991999999999997 -45.79607272727273 -33.512727272727275 -44.67898181818182Z" stroke-width="1"></path><path fill="#ffffff" d="M265.3090909090909 125.68203636363636c-42.77992727272727 0 -90.65192727272726 112.65396363636363 -49.38472727272727 163.47694545454544 13.405090909090909 16.551563636363635 33.00072727272727 22.704872727272726 49.38472727272727 22.704872727272726 110.44305454545454 0 59.22909090909091 -186.1818181818182 0 -186.1818181818182Z" stroke-width="1"></path><path fill="#e2e4e5" d="M265.3090909090909 125.68203636363636v186.1818181818182c111.08072727272726 0 58.796218181818176 -186.1818181818182 0 -186.1818181818182Z" stroke-width="1"></path><path fill="#f99134" d="M265.39752727272725 157.84494545454544c2.7042909090909086 0 4.845381818181818 2.141090909090909 4.845381818181818 4.845381818181818v2.4762181818181817a40.96 40.96 0 0 1 17.4592 6.1952c1.801309090909091 1.014690909090909 3.3791999999999995 2.7042909090909086 3.3791999999999995 5.408581818181817 0 3.4909090909090907 -2.816 6.1952 -6.30690909090909 6.1952 -1.1263999999999998 0 -2.2527999999999997 -0.33512727272727266 -3.3791999999999995 -1.014690909090909 -3.9423999999999997 -2.364509090909091 -7.773090909090908 -4.05410909090909 -11.603781818181817 -4.957090909090908v21.62501818181818c17.11941818181818 4.282181818181818 24.441018181818183 11.152290909090908 24.441018181818183 23.202909090909092 0 12.3904 -9.68610909090909 20.614981818181818 -23.99418181818182 21.9648v6.758399999999999c0 2.7042909090909086 -2.141090909090909 4.845381818181818 -4.845381818181818 4.845381818181818s-4.957090909090908 -2.141090909090909 -4.957090909090908 -4.845381818181818v-6.9818181818181815a48.71912727272727 48.71912727272727 0 0 1 -23.0912 -8.787781818181818c-1.9130181818181815 -1.2381090909090908 -3.039418181818182 -3.039418181818182 -3.039418181818182 -5.408581818181817 0 -3.4909090909090907 2.7042909090909086 -6.1952 6.1952 -6.1952 1.354472727272727 0 2.7042909090909086 0.4514909090909091 3.718981818181818 1.2381090909090908 5.292218181818182 3.8306909090909085 10.472727272727273 6.418618181818181 16.67258181818182 7.5496727272727275v-22.192872727272725c-16.44450909090909 -4.277527272727273 -24.10589090909091 -10.472727272727273 -24.10589090909091 -23.202909090909092 0 -12.050618181818182 9.574399999999999 -20.38690909090909 23.6544 -21.51330909090909v-2.364509090909091c0.004654545454545455 -2.699636363636363 2.2527999999999997 -4.840727272727273 4.957090909090908 -4.840727272727273Zm-4.505599999999999 38.40930909090909V176.31418181818182c-7.209890909090908 0.6749090909090908 -10.81250909090909 4.505599999999999 -10.81250909090909 9.462690909090908 0 4.733672727272727 2.141090909090909 7.661381818181817 10.81250909090909 10.477381818181817Zm8.899490909090908 15.657890909090908v20.49861818181818c7.209890909090908 -0.7866181818181819 11.152290909090908 -4.393890909090909 11.152290909090908 -9.797818181818181 0 -4.957090909090908 -2.4762181818181817 -7.996509090909091 -11.152290909090908 -10.7008Z" stroke-width="1"></path><path fill="#cfd3d4" d="M352.06981818181816 263.9220363636363a22.676945454545454 22.676945454545454 0 0 1 -12.567272727272728 10.705454545454543c5.585454545454545 -3.5374545454545454 9.681454545454546 -7.261090909090909 12.567272727272728 -10.705454545454543Z" stroke-width="1"></path><path fill="#cfd3d4" d="M188.64872727272726 282.44712727272724c-9.262545454545455 0.37236363636363634 -24.34327272727273 -4.933818181818181 -29.32363636363636 -19.921454545454544 5.12 6.283636363636364 14.242909090909091 13.86589090909091 29.32363636363636 19.921454545454544Z" stroke-width="1"></path><path fill="#facb1b" d="M340.43345454545454 329.91883636363633 288.58181818181816 344.44567272727267l14.336 -17.919999999999998c2.234181818181818 -2.746181818181818 1.3032727272727274 -6.8421818181818175 -1.8152727272727271 -8.424727272727273l-0.09309090909090909 -0.04654545454545454c-1.9083636363636363 -0.9309090909090909 -4.189090909090909 -0.6981818181818181 -5.864727272727272 0.6050909090909091L256 349.10021818181815l-5.445818181818181 1.117090909090909c-125.36552727272728 -3.2442181818181814 -146.81367272727272 -107.72479999999999 -107.24072727272727 -117.52727272727272 6.330181818181818 -1.536 12.660363636363636 -2.9789090909090907 18.990545454545455 -4.235636363636363 -2.0014545454545454 5.12 -3.4909090909090907 10.612363636363636 -4.189090909090909 16.05818181818182 -2.932363636363636 2.141090909090909 -4.51490909090909 4.468363636363636 -4.51490909090909 6.8421818181818175 0 1.8152727272727271 1.536 6.050909090909091 5.725090909090909 11.17090909090909 5.12 6.283636363636364 14.242909090909091 13.870545454545454 29.32363636363636 19.921454545454544 15.453090909090907 6.190545454545455 37.18981818181818 10.798545454545453 67.35127272727273 10.798545454545453 42.72872727272727 0 68.51490909090909 -8.843636363636362 83.50254545454546 -18.618181818181817 5.585454545454545 -3.5374545454545454 9.681454545454546 -7.261090909090909 12.567272727272728 -10.705454545454543 4.654545454545454 -5.492363636363636 6.330181818181818 -10.193454545454545 6.330181818181818 -12.567272727272728 0 -1.5825454545454545 -0.6516363636363637 -3.072 -1.9549090909090907 -4.561454545454545 0.32581818181818184 -6.004363636363636 -0.32581818181818184 -12.101818181818182 -1.722181818181818 -17.31490909090909 4.654545454545454 0.9774545454545454 9.309090909090909 2.048 13.963636363636363 3.211636363636363 38.54894545454545 9.546472727272727 7.554327272727273 76.76276363636363 -28.253090909090908 97.22879999999999Z" stroke-width="1"></path><path fill="#84462d" d="M160.54923636363637 322.45294545454544 107.05454545454545 367.7184v13.963636363636363l55.85454545454545 -13.963636363636363 25.82341818181818 -29.50981818181818c-10.886981818181818 -4.4032 -20.256581818181818 -9.774545454545455 -28.183272727272726 -15.755636363636361Z" stroke-width="1"></path></svg>